<svg width="96" height="96" xmlns="http://www.w3.org/2000/svg" xmlns:xlink="http://www.w3.org/1999/xlink" xml:space="preserve" overflow="hidden"><g transform="translate(-592 -312)"><path d="M624 374C624 378.418 620.418 382 616 382 611.582 382 608 378.418 608 374 608 369.582 611.582 366 616 366 620.418 366 624 369.582 624 374Z" fill="#3B7D23"/><path d="M672 374C672 378.418 668.418 382 664 382 659.582 382 656 378.418 656 374 656 369.582 659.582 366 664 366 668.418 366 672 369.582 672 374Z" fill="#3B7D23"/><path d="M631 354 631 342 644.7 342C645.8 342 646.8 342.4 647.5 343.2L658.3 354 631 354ZM627 354 601.7 354 612.5 343.2C613.3 342.4 614.3 342 615.3 342L627 342 627 354ZM674 354 665.7 354C664.6 354 663.6 353.6 662.9 352.8L650.3 340.3C648.8 338.8 646.8 338 644.6 338L615.3 338C613.2 338 611.1 338.8 609.6 340.3L597.2 352.8C596.4 353.6 596 354.6 596 355.7L596 366C596 370.4 599.6 374 604 374L605 374C605 367.9 609.9 363 616 363 622.1 363 627 367.9 627 374L653 374C653 367.9 657.9 363 664 363 670.1 363 675 367.9 675 374L680 374C682.2 374 684 372.2 684 370L684 364C684 358.5 679.5 354 674 354Z" fill="#3B7D23"/></g></svg>