<svg width="96" height="96" xmlns="http://www.w3.org/2000/svg" xmlns:xlink="http://www.w3.org/1999/xlink" xml:space="preserve" overflow="hidden"><g transform="translate(-741 -153)"><path d="M820 228 820 226 816 226 816 192 820 192 820 190 823 190 823 184 820 184 789 165 758 184 755 184 755 190 758 190 758 192 762 192 762 226 758 226 758 228 751 233 751 237 789 237 827 237 827 233 820 228ZM774 226 768 226 768 192 774 192 774 226ZM786 226 780 226 780 192 786 192 786 226ZM788 182C785.8 182 784 180.2 784 178 784 175.8 785.8 174 788 174 790.2 174 792 175.8 792 178 792 180.2 790.2 182 788 182ZM798 226 792 226 792 192 798 192 798 226ZM810 226 804 226 804 192 810 192 810 226Z" fill="#156082"/></g></svg>