<svg width="1049" height="654" xmlns="http://www.w3.org/2000/svg" xmlns:xlink="http://www.w3.org/1999/xlink" xml:space="preserve" overflow="hidden"><g transform="translate(-1751 -619)"><g><g><g><path d="M1857.56 1147.87C1857.56 1161.16 1846.79 1171.94 1833.5 1171.94 1820.21 1171.94 1809.44 1161.16 1809.44 1147.87 1809.44 1134.59 1820.21 1123.81 1833.5 1123.81 1846.79 1123.81 1857.56 1134.59 1857.56 1147.87Z" fill="#FF0000"/><path d="M2029.44 1147.87C2029.44 1161.16 2018.66 1171.94 2005.38 1171.94 1992.09 1171.94 1981.31 1161.16 1981.31 1147.87 1981.31 1134.59 1992.09 1123.81 2005.38 1123.81 2018.66 1123.81 2029.44 1134.59 2029.44 1147.87Z" fill="#FF0000"/><path d="M2048 1088.75 2029.78 1075C2027.39 1073.22 2025.69 1070.67 2024.97 1067.78L2018.09 1044.06C2014.59 1032.34 2003.86 1024.26 1991.63 1024.12L1984.75 1024.12 1984.75 1006.94C1984.75 1001.24 1980.13 996.625 1974.44 996.625L1967.56 996.625C1961.87 996.625 1957.25 1001.24 1957.25 1006.94L1957.25 1024.12 1957.25 1024.12 1957.25 1017.25C1957.25 1009.66 1951.09 1003.5 1943.5 1003.5L1792.25 1003.5C1784.66 1003.5 1778.5 1009.66 1778.5 1017.25L1778.5 1134.12C1778.5 1141.72 1784.66 1147.87 1792.25 1147.87L1799.13 1147.87C1799.13 1128.89 1814.52 1113.5 1833.5 1113.5 1852.48 1113.5 1867.88 1128.89 1867.88 1147.87L1971 1147.87C1971 1128.89 1986.39 1113.5 2005.38 1113.5 2024.36 1113.5 2039.75 1128.89 2039.75 1147.87 2047.34 1147.87 2053.5 1141.72 2053.5 1134.12L2053.5 1099.75C2053.5 1095.42 2051.46 1091.35 2048 1088.75ZM1916.86 1075 1906.55 1092.87 1888.5 1082.56 1888.5 1103.19 1867.88 1103.19 1867.88 1082.36 1849.83 1092.67 1839.52 1074.79 1857.56 1064.48 1839.52 1054.17 1849.83 1036.29 1867.88 1046.61 1867.88 1025.77 1888.5 1025.77 1888.5 1046.64 1906.55 1036.33 1916.86 1054.2 1898.81 1064.52ZM1971 1072.25 1971 1037.87 1991.63 1037.87C1997.76 1037.79 2003.15 1041.91 2004.69 1047.84L2011.56 1071.56C2011.56 1071.91 2011.91 1071.91 2011.91 1072.25Z" fill="#FF0000"/><path d="M1971 986.312 1971 969.125" stroke="#231F20" stroke-width="6.875" stroke-miterlimit="10" fill="none"/><path d="M1986.47 989.75 1998.5 977.719" stroke="#231F20" stroke-width="6.875" stroke-miterlimit="10"/><path d="M1955.53 989.75 1943.5 977.719" stroke="#231F20" stroke-width="6.875" stroke-miterlimit="10"/></g></g></g><g><g><g><path d="M2554.75 877.875 2554.75 857.438 2473 775.688 2391.25 857.438 2391.25 877.875 2193.69 877.875 2193.69 905.125 2207.31 905.125 2207.31 1164 2738.69 1164 2738.69 905.125 2752.31 905.125 2752.31 877.875ZM2275.44 1109.5 2234.56 1109.5 2234.56 1068.62 2275.44 1068.62ZM2275.44 1041.38 2234.56 1041.38 2234.56 1000.5 2275.44 1000.5ZM2275.44 973.25 2234.56 973.25 2234.56 932.375 2275.44 932.375ZM2343.56 1109.5 2302.69 1109.5 2302.69 1068.62 2343.56 1068.62ZM2343.56 1041.38 2302.69 1041.38 2302.69 1000.5 2343.56 1000.5ZM2343.56 973.25 2302.69 973.25 2302.69 932.375 2343.56 932.375ZM2411.69 1109.5 2370.81 1109.5 2370.81 1068.62 2411.69 1068.62ZM2411.69 1041.38 2370.81 1041.38 2370.81 1000.5 2411.69 1000.5ZM2411.69 973.25 2370.81 973.25 2370.81 932.375 2411.69 932.375ZM2445.75 1136.75 2445.75 1041.38 2500.25 1041.38 2500.25 1136.75ZM2520.69 904.308 2507.95 926.38 2485.74 913.504 2485.74 939.188 2460.26 939.188 2460.26 913.504 2438.05 926.38 2425.31 904.308 2447.59 891.5 2425.31 878.693 2438.05 856.62 2460.26 869.496 2460.26 843.813 2485.74 843.813 2485.74 869.496 2507.95 856.62 2520.69 878.693 2498.41 891.5ZM2575.19 1109.5 2534.31 1109.5 2534.31 1068.62 2575.19 1068.62ZM2575.19 1041.38 2534.31 1041.38 2534.31 1000.5 2575.19 1000.5ZM2575.19 973.25 2534.31 973.25 2534.31 932.375 2575.19 932.375ZM2643.31 1109.5 2602.44 1109.5 2602.44 1068.62 2643.31 1068.62ZM2643.31 1041.38 2602.44 1041.38 2602.44 1000.5 2643.31 1000.5ZM2643.31 973.25 2602.44 973.25 2602.44 932.375 2643.31 932.375ZM2711.44 1109.5 2670.56 1109.5 2670.56 1068.62 2711.44 1068.62ZM2711.44 1041.38 2670.56 1041.38 2670.56 1000.5 2711.44 1000.5ZM2711.44 973.25 2670.56 973.25 2670.56 932.375 2711.44 932.375Z" fill="#747474"/><path d="M2473 740.467 2572.39 839.793 2591.61 820.582 2473 701.908 2354.39 820.582 2373.61 839.793 2473 740.467Z" fill="#747474"/></g></g></g></g></svg>