<svg width="569" height="330" xmlns="http://www.w3.org/2000/svg" xmlns:xlink="http://www.w3.org/1999/xlink" xml:space="preserve" overflow="hidden"><defs><clipPath id="clip0"><rect x="1429" y="1116" width="569" height="330"/></clipPath></defs><g clip-path="url(#clip0)" transform="translate(-1429 -1116)"><path d="M1530.5 1334C1512 1334 1497 1349 1497 1367.5 1497 1386 1512 1401 1530.5 1401 1549 1401 1564 1386 1564 1367.5 1564 1349 1549 1334 1530.5 1334Z" fill="#3A3A3A" fill-rule="evenodd"/><path d="M1900.31 1334.63C1898 1332.88 1895.8 1330.98 1893.75 1328.93 1886.09 1320.23 1873.76 1306.54 1860.25 1300.11 1824.1 1282.87 1766.76 1278.48 1766.76 1278.48 1738.14 1260.77 1708.28 1245.13 1677.42 1231.67 1673.91 1230.18 1669.83 1231.24 1667.5 1234.25 1664.71 1238.03 1665.52 1243.35 1669.31 1246.13 1669.71 1246.43 1670.14 1246.68 1670.59 1246.9 1684.04 1254.32 1697.08 1262.46 1709.63 1271.31L1699.02 1271.31C1693.4 1271.31 1688.85 1275.85 1688.85 1281.44L1628.82 1281.44C1627.6 1281.44 1626.38 1281.33 1625.19 1281.09L1621.33 1280.34 1621.33 1261.51C1621.44 1256.31 1617.8 1251.77 1612.68 1250.75 1607.03 1249.78 1601.66 1253.58 1600.7 1259.21 1600.6 1259.79 1600.55 1260.37 1600.55 1260.96L1600.55 1276.33 1574.58 1271.31 1549.88 1267.21C1543.68 1266.17 1537.33 1266.32 1531.18 1267.67 1525.85 1268.86 1520.4 1270.42 1517.43 1271.3 1498.76 1276.94 1451.83 1293.22 1438.39 1302.35 1428.24 1309.25 1434.15 1349.72 1434.15 1349.72L1429.15 1356 1429.01 1360.17C1428.81 1366.04 1432.77 1371.25 1438.5 1372.65L1444 1374.01C1452.5 1375.67 1461.12 1376.64 1469.77 1376.91L1482.28 1377.61C1479.94 1367.32 1481.11 1356.55 1485.59 1347 1496.65 1322.25 1525.74 1311.12 1550.57 1322.13 1568.37 1330.03 1579.83 1347.65 1579.78 1367.07 1579.78 1372.14 1578.99 1377.17 1577.44 1382L1763.9 1382C1755.49 1356.15 1769.7 1328.39 1795.64 1320.01 1821.58 1311.62 1849.43 1325.78 1857.85 1351.64 1860.38 1359.41 1860.92 1367.69 1859.44 1375.73L1907 1375.73 1907 1348.21C1906.99 1342.9 1904.52 1337.89 1900.31 1334.63Z" fill="#C04F15" fill-rule="evenodd"/><path d="M1811 1334C1792.22 1334 1777 1349 1777 1367.5 1777 1386 1792.22 1401 1811 1401 1829.78 1401 1845 1386 1845 1367.5 1845 1349 1829.78 1334 1811 1334Z" fill="#3A3A3A" fill-rule="evenodd"/><g><g><g><path d="M1802.06 1167.56C1802.06 1180.85 1791.29 1191.63 1778 1191.63 1764.71 1191.63 1753.94 1180.85 1753.94 1167.56 1753.94 1154.27 1764.71 1143.5 1778 1143.5 1791.29 1143.5 1802.06 1154.27 1802.06 1167.56Z"/><path d="M1912.06 1167.56C1912.06 1180.85 1901.29 1191.63 1888 1191.63 1874.71 1191.63 1863.94 1180.85 1863.94 1167.56 1863.94 1154.27 1874.71 1143.5 1888 1143.5 1901.29 1143.5 1912.06 1154.27 1912.06 1167.56Z"/><path d="M1952.97 1295.09 1933.37 1222.56C1932.69 1220.5 1931.66 1218.44 1930.28 1217.06 1923.75 1210.19 1915.5 1205.03 1906.56 1201.94 1900.72 1199.53 1894.53 1198.5 1888 1198.5 1881.47 1198.5 1875.28 1199.53 1869.44 1201.59 1860.16 1204.69 1852.25 1209.84 1845.72 1216.72 1844.34 1218.44 1843.31 1220.16 1842.62 1222.22L1833 1258.31 1823.37 1222.56C1822.69 1220.5 1821.66 1218.44 1820.28 1217.06 1813.75 1210.19 1805.5 1205.03 1796.56 1201.94 1790.72 1199.53 1784.53 1198.5 1778 1198.5 1771.47 1198.5 1765.28 1199.53 1759.44 1201.59 1750.16 1204.69 1742.25 1209.84 1735.72 1216.72 1734.34 1218.44 1733.31 1220.16 1732.62 1222.22L1713.37 1294.75C1712 1300.25 1714.75 1306.44 1720.59 1307.81 1720.94 1308.5 1721.97 1308.5 1723 1308.5 1727.47 1308.5 1731.59 1305.41 1732.97 1300.94L1750.5 1234.94 1750.5 1311.94 1750.5 1418.5 1771.12 1418.5 1771.12 1311.94 1784.87 1311.94 1784.87 1418.5 1805.5 1418.5 1805.5 1311.94 1805.5 1234.94 1823.03 1300.59C1824.41 1305.06 1828.53 1308.16 1833 1308.16 1834.03 1308.16 1834.72 1308.16 1835.75 1307.81 1839.19 1306.78 1841.59 1304.03 1842.62 1300.94 1842.97 1300.94 1860.5 1234.59 1860.5 1234.59L1860.5 1311.94 1860.5 1418.5 1881.12 1418.5 1881.12 1311.94 1894.87 1311.94 1894.87 1418.5 1915.5 1418.5 1915.5 1311.94 1915.5 1234.94 1933.03 1300.59C1934.41 1305.06 1938.53 1308.16 1943 1308.16 1944.03 1308.16 1944.72 1308.16 1945.75 1307.81 1951.25 1306.44 1954.34 1300.59 1952.97 1295.09Z"/></g></g></g></g></svg>