<svg width="96" height="96" xmlns="http://www.w3.org/2000/svg" xmlns:xlink="http://www.w3.org/1999/xlink" xml:space="preserve" overflow="hidden"><g transform="translate(-406 -120)"><path d="M484.5 137.5 483.5 128.5 472.5 139.5 473.1 144.7 457.1 160.7C455.7 160 454.1 159.5 452.4 159.5 446.9 159.5 442.4 164 442.4 169.5 442.4 175 446.9 179.5 452.4 179.5 457.9 179.5 462.4 175 462.4 169.5 462.4 167.8 462 166.3 461.3 164.9L477.3 148.9 482.5 149.5 493.5 138.5 484.5 137.5Z" fill="#FF0000"/><path d="M485.3 152.3 484 153.7 482.1 153.5 480 153.2C482.8 158 484.5 163.5 484.5 169.5 484.5 187.1 470.1 201.5 452.5 201.5 434.9 201.5 420.5 187.1 420.5 169.5 420.5 151.9 434.9 137.5 452.5 137.5 458.4 137.5 464 139.1 468.8 142L468.6 140 468.3 138 469.7 136.6 470.4 135.9C465 133.1 459 131.5 452.5 131.5 431.5 131.5 414.5 148.5 414.5 169.5 414.5 190.5 431.5 207.5 452.5 207.5 473.5 207.5 490.5 190.5 490.5 169.5 490.5 163 488.9 157 486 151.7L485.3 152.3Z" fill="#FF0000"/><path d="M469.2 162.7C470.1 164.8 470.5 167.1 470.5 169.5 470.5 179.4 462.4 187.5 452.5 187.5 442.6 187.5 434.5 179.4 434.5 169.5 434.5 159.6 442.6 151.5 452.5 151.5 454.9 151.5 457.2 152 459.3 152.8L463.8 148.3C460.4 146.5 456.6 145.5 452.5 145.5 439.3 145.5 428.5 156.3 428.5 169.5 428.5 182.7 439.3 193.5 452.5 193.5 465.7 193.5 476.5 182.7 476.5 169.5 476.5 165.4 475.5 161.6 473.7 158.2L469.2 162.7Z" fill="#FF0000"/></g></svg>