<svg width="585" height="339" xmlns="http://www.w3.org/2000/svg" xmlns:xlink="http://www.w3.org/1999/xlink" xml:space="preserve" overflow="hidden"><defs><clipPath id="clip0"><rect x="2283" y="971" width="585" height="339"/></clipPath></defs><g clip-path="url(#clip0)" transform="translate(-2283 -971)"><path d="M2350.5 1213C2338.07 1213 2328 1223.07 2328 1235.5 2328 1247.93 2338.07 1258 2350.5 1258 2362.93 1258 2373 1247.93 2373 1235.5 2373 1223.07 2362.93 1213 2350.5 1213Z" fill="#3A3A3A" fill-rule="evenodd"/><path d="M2595.56 1213.63C2594.03 1212.47 2592.57 1211.21 2591.21 1209.86 2586.14 1204.09 2577.95 1195.02 2569 1190.77 2545.02 1179.35 2507 1176.44 2507 1176.44 2488.02 1164.72 2468.22 1154.36 2447.75 1145.44 2445.42 1144.46 2442.72 1145.16 2441.17 1147.15 2439.32 1149.66 2439.86 1153.18 2442.37 1155.02 2442.64 1155.22 2442.92 1155.39 2443.22 1155.53 2452.14 1160.44 2460.78 1165.84 2469.11 1171.7L2462.07 1171.7C2458.35 1171.7 2455.33 1174.7 2455.33 1178.4L2415.52 1178.4C2414.71 1178.41 2413.9 1178.33 2413.11 1178.17L2410.55 1177.68 2410.55 1165.21C2410.62 1161.76 2408.21 1158.76 2404.82 1158.08 2401.06 1157.44 2397.51 1159.95 2396.87 1163.68 2396.8 1164.07 2396.77 1164.45 2396.77 1164.84L2396.77 1175.02 2379.55 1171.7 2363.17 1168.98C2359.05 1168.29 2354.84 1168.39 2350.77 1169.29 2347.23 1170.07 2343.61 1171.1 2341.64 1171.69 2329.27 1175.42 2298.14 1186.2 2289.23 1192.25 2282.5 1196.82 2286.41 1223.62 2286.41 1223.62L2283.1 1227.78 2283 1230.54C2282.87 1234.43 2285.5 1237.88 2289.3 1238.81L2292.95 1239.71C2298.58 1240.81 2304.3 1241.45 2310.04 1241.63L2318.33 1242.09C2316.78 1235.28 2317.56 1228.15 2320.53 1221.82 2327.86 1205.43 2347.16 1198.06 2363.62 1205.35 2375.43 1210.58 2383.02 1222.25 2382.99 1235.11 2382.99 1238.47 2382.47 1241.8 2381.44 1245L2505.1 1245C2499.52 1227.88 2508.94 1209.5 2526.15 1203.95 2543.35 1198.39 2561.82 1207.77 2567.4 1224.89 2569.08 1230.04 2569.44 1235.52 2568.46 1240.85L2600 1240.85 2600 1222.63C2599.99 1219.11 2598.35 1215.79 2595.56 1213.63Z" fill="#C04F15" fill-rule="evenodd"/><path d="M2536 1213C2523.85 1213 2514 1223.07 2514 1235.5 2514 1247.93 2523.85 1258 2536 1258 2548.15 1258 2558 1247.93 2558 1235.5 2558 1223.07 2548.15 1213 2536 1213Z" fill="#3A3A3A" fill-rule="evenodd"/><path d="M2472 1226 2472 1232.83C2472 1251.7 2487.43 1267 2506.46 1267L2692.54 1267C2711.57 1267 2727 1251.7 2727 1232.83L2727 1226Z" fill="#80350E" fill-rule="evenodd"/><path d="M2554.76 1019.13C2554.79 1012.05 2560.19 1006.16 2567.24 1005.51 2570.82 1017.29 2580.55 1026.18 2592.62 1028.71L2592.62 1050.06C2588.82 1050.06 2585.74 1053.14 2585.74 1056.94L2585.74 1081 2613.26 1081 2613.26 1056.94C2613.26 1053.14 2610.18 1050.06 2606.38 1050.06L2606.38 1028.71C2618.45 1026.18 2628.18 1017.29 2631.76 1005.51 2638.81 1006.16 2644.21 1012.05 2644.24 1019.13L2644.24 1026 2658 1026 2658 1019.13C2657.98 1003.94 2645.67 991.642 2630.47 991.625L2606.38 991.625 2606.38 977.875C2606.38 974.078 2603.3 971 2599.5 971 2595.7 971 2592.62 974.078 2592.62 977.875L2592.62 991.625 2568.53 991.625C2553.33 991.642 2541.02 1003.94 2541 1019.13L2541 1026 2554.76 1026Z" fill="#80350E" fill-rule="evenodd"/><path d="M2516.79 1122.53C2516.79 1116.02 2521.37 1110.4 2527.75 1109.06 2538.62 1132.49 2560.26 1149.14 2585.71 1153.67L2585.71 1184.47 2582.27 1184.47C2578.46 1184.47 2575.37 1187.55 2575.37 1191.35L2575.37 1212 2623.62 1212 2623.62 1191.35C2623.62 1187.55 2620.54 1184.47 2616.73 1184.47L2613.29 1184.47 2613.29 1153.67C2638.74 1149.14 2660.38 1132.49 2671.25 1109.06 2677.63 1110.4 2682.21 1116.02 2682.21 1122.53L2682.21 1129.41 2696 1129.41 2696 1122.53C2695.98 1107.33 2683.65 1095.02 2668.43 1095L2530.57 1095C2515.35 1095.02 2503.02 1107.33 2503 1122.53L2503 1129.41 2516.79 1129.41Z" fill="#80350E" fill-rule="evenodd"/><path d="M2541 1040 2555 1040 2555 1054 2541 1054Z" fill="#156082" fill-rule="evenodd"/><path d="M2541 1068 2555 1068 2555 1081 2541 1081Z" fill="#156082" fill-rule="evenodd"/><path d="M2503 1143 2517 1143 2517 1157 2503 1157Z" fill="#156082" fill-rule="evenodd"/><path d="M2503 1171 2517 1171 2517 1185 2503 1185Z" fill="#156082" fill-rule="evenodd"/><path d="M2682 1143 2696 1143 2696 1157 2682 1157Z" fill="#156082" fill-rule="evenodd"/><path d="M2682 1171 2696 1171 2696 1185 2682 1185Z" fill="#156082" fill-rule="evenodd"/><path d="M2503 1198 2517 1198 2517 1212 2503 1212Z" fill="#156082" fill-rule="evenodd"/><path d="M2682 1198 2696 1198 2696 1212 2682 1212Z" fill="#156082" fill-rule="evenodd"/><path d="M2644 1040 2658 1040 2658 1054 2644 1054Z" fill="#156082" fill-rule="evenodd"/><path d="M2644 1068 2658 1068 2658 1081 2644 1081Z" fill="#156082" fill-rule="evenodd"/><path d="M23.5 0C10.5213 0 0 10.0735 0 22.5002 0 34.9265 10.5213 45 23.5 45 36.4792 45 47.0001 34.9265 47.0001 22.5002 47.0001 10.0735 36.4792 0 23.5 0Z" fill="#3A3A3A" fill-rule="evenodd" transform="matrix(-1 0 0 1 2821 1265)"/><path d="M326.368 68.6273C324.765 67.4709 323.247 66.2109 321.825 64.8563 316.524 59.094 307.981 50.0236 298.63 45.7657 273.593 34.3541 233.889 31.4437 233.889 31.4437 214.07 19.7161 193.396 9.35547 172.025 0.440871 169.593-0.543801 166.77 0.160873 165.155 2.15469 163.223 4.65668 163.784 8.17789 166.409 10.0202 166.687 10.2156 166.982 10.3869 167.292 10.533 176.609 15.4409 185.634 20.8365 194.325 26.6959L186.977 26.6959C183.089 26.6959 179.938 29.6996 179.938 33.4044L138.371 33.4044C137.525 33.4058 136.682 33.3291 135.853 33.1748L133.18 32.6777 133.18 20.2067C133.261 16.7621 130.739 13.7581 127.196 13.0764 123.279 12.4401 119.563 14.9504 118.896 18.6832 118.828 19.0651 118.793 19.4523 118.794 19.8399L118.794 30.021 100.81 26.6959 83.7077 23.9776C79.4108 23.2892 75.0152 23.3939 70.7595 24.2861 67.0621 25.071 63.289 26.1028 61.2319 26.6855 48.309 30.4223 15.8123 41.2033 6.50049 47.2535-0.523872 51.8198 3.56551 78.6234 3.56551 78.6234L0.101954 82.7812 0.00470002 85.5445C-0.131239 89.4339 2.61032 92.8824 6.57605 93.8091L10.3885 94.7074C16.2715 95.8098 22.2391 96.4529 28.2319 96.6303L36.893 97.0932C35.2744 90.28 36.0817 83.1476 39.1877 76.8199 46.8426 60.4307 66.9883 53.0582 84.185 60.354 96.5124 65.584 104.442 77.2532 104.407 90.1137 104.407 93.4694 103.861 96.8042 102.788 100L231.911 100C226.084 82.8791 235.924 64.4986 253.888 58.9454 271.851 53.3929 291.137 62.7703 296.963 79.8916 298.715 85.0406 299.094 90.5247 298.065 95.849L331 95.849 331 77.6257C330.991 74.1063 329.282 70.7874 326.368 68.6273Z" fill="#46B1E1" fill-rule="evenodd" transform="matrix(-1 0 0 1 2868 1197)"/><path d="M23.5 0C10.5213 0 0 10.0735 0 22.5002 0 34.9265 10.5213 45 23.5 45 36.4792 45 47.0001 34.9265 47.0001 22.5002 47.0001 10.0735 36.4792 0 23.5 0Z" fill="#3A3A3A" fill-rule="evenodd" transform="matrix(-1 0 0 1 2627 1265)"/></g></svg>