<svg width="1151" height="1139" xmlns="http://www.w3.org/2000/svg" xmlns:xlink="http://www.w3.org/1999/xlink" xml:space="preserve" overflow="hidden"><g transform="translate(-1672 -722)"><g><g><g><path d="M983.896 580.854C977.969 580.854 973.227 577.298 969.671 573.742 963.744 567.815 960.187 557.146 960.187 546.477 960.187 531.067 970.856 519.212 980.339 512.1L981.525 510.914C1004.05 522.769 1007.6 534.623 1007.6 545.292 1007.6 564.258 996.935 580.854 983.896 580.854ZM661.462 347.327C657.906 355.625 648.423 361.552 640.125 361.552 636.569 361.552 633.012 360.367 630.642 359.181 592.708 341.4 551.219 331.917 512.1 331.917 489.577 331.917 467.054 335.473 444.531 341.4 431.492 344.956 418.452 337.844 414.896 324.804 411.34 311.765 418.452 298.725 431.492 295.169 457.571 288.056 484.835 284.5 510.914 284.5 555.96 284.5 604.562 295.169 648.423 315.321 661.462 321.248 667.389 335.473 661.462 347.327ZM1070.43 438.604C1040.8 433.862 1004.05 442.16 974.412 458.756 947.148 452.829 905.658 452.829 867.725 465.869 812.01 333.102 656.721 237.083 509.729 237.083 458.756 237.083 407.783 248.937 361.552 270.275L215.746 201.521C206.262 196.779 195.594 206.262 199.15 215.746L246.567 349.698C218.117 379.333 194.408 413.71 177.812 451.644 175.442 458.756 169.515 463.498 161.217 465.869L118.542 476.537C97.2042 481.279 82.9792 500.246 82.9792 522.769L82.9792 615.231C82.9792 636.569 97.2042 655.535 118.542 661.462L162.402 672.131C169.515 674.502 175.442 679.244 178.998 686.356 199.15 732.587 229.971 774.077 267.904 808.454 271.46 812.01 275.017 816.752 276.202 822.679L293.983 930.552C296.354 942.406 305.837 950.704 317.692 950.704L395.929 950.704C407.783 950.704 417.267 942.406 419.637 930.552L425.565 892.619C452.829 899.731 481.279 903.287 510.914 903.287 542.921 903.287 576.112 898.546 606.933 890.248L614.046 930.552C616.417 942.406 625.9 950.704 637.754 950.704L715.992 950.704C727.846 950.704 737.329 942.406 739.7 930.552L757.481 822.679C758.667 816.752 761.037 812.01 765.779 808.454 838.089 745.627 889.062 662.648 889.062 569 889.062 548.848 886.692 529.881 881.95 510.914 896.175 506.173 911.585 502.617 925.81 502.617 917.512 515.656 912.771 529.881 912.771 545.292 911.585 569 921.069 591.523 936.479 608.119 949.519 621.158 966.114 629.456 983.896 629.456 1023.01 629.456 1055.02 592.708 1055.02 546.477 1055.02 523.954 1046.72 503.802 1030.13 488.392 1041.98 486.021 1052.65 484.835 1063.32 486.021 1076.36 488.392 1088.21 478.908 1090.58 465.869 1091.77 452.829 1083.47 440.975 1070.43 438.604Z" fill="#E59EDD" transform="matrix(1 0 0 1.00088 1685 722)"/></g></g></g><g><g><g><path d="M203.292 532.146 269.063 310.917 167.417 310.917 217.761 43.2892 368.197 43.2892 304.938 239.167 406.583 239.167 203.292 532.146Z" fill="#FFFFFF" transform="matrix(1 0 0 1.00174 1944 915)"/></g></g></g><g><g><g><path d="M2013.82 1190.14 1998.86 1175.18 1951.5 1222.54 1904.14 1175.18 1889.18 1190.14 1936.54 1237.5 1889.18 1284.86 1904.14 1299.82 1951.5 1252.46 1998.86 1299.82 2013.82 1284.86 1966.46 1237.5Z" stroke="#FFFFFF" stroke-width="1.76042" fill="#FFFFFF"/></g></g></g><g><g><g><path d="M1965.56 1681.78 1965.56 1657.37C1965.56 1640.87 1939.09 1629.87 1907.12 1625.41L1907.12 1605.81C1907.12 1600.31 1904.03 1592.75 1889.94 1585.53L1889.94 1561.12C1889.94 1538.78 1842.16 1526.75 1797.12 1526.75 1752.09 1526.75 1704.31 1538.78 1704.31 1561.12L1704.31 1588.62C1704.31 1596.87 1710.84 1603.75 1721.5 1609.25L1721.5 1633.31C1721.5 1633.31 1721.5 1633.31 1721.5 1633.66 1707.41 1640.87 1704.31 1648.78 1704.31 1653.94L1704.31 1681.44C1704.31 1703.78 1752.09 1715.81 1797.12 1715.81L1797.12 1729.56C1797.12 1751.91 1844.91 1763.94 1889.94 1763.94 1934.97 1763.94 1982.75 1751.91 1982.75 1729.56L1982.75 1702.06C1982.75 1696.91 1979.66 1689 1965.56 1681.78ZM1975.88 1702.41C1975.88 1715.47 1940.47 1729.91 1889.94 1729.91 1849.72 1729.91 1819.12 1720.62 1808.12 1710.31 1808.12 1710.31 1808.12 1710.31 1808.12 1710.31 1829.09 1716.84 1850.75 1719.94 1872.41 1719.59 1914.34 1719.59 1959.03 1708.94 1964.53 1689.69 1972.09 1693.47 1975.88 1697.94 1975.88 1702.41ZM1917.44 1735.06 1917.44 1755.69C1912.97 1756.03 1908.5 1756.72 1903.69 1756.72L1903.69 1736.09C1908.5 1736.09 1912.97 1735.75 1917.44 1735.06ZM1924.31 1734.37C1929.12 1733.69 1933.59 1733 1938.06 1731.97L1938.06 1752.25C1933.94 1753.28 1929.12 1753.97 1924.31 1754.66L1924.31 1734.37ZM1944.94 1730.25C1949.75 1729.22 1954.22 1727.5 1958.69 1725.78L1958.69 1745.72C1954.22 1747.78 1949.75 1749.16 1944.94 1750.53L1944.94 1730.25ZM1834.94 1750.53C1830.12 1749.16 1825.66 1747.78 1821.19 1745.72L1821.19 1725.78C1825.66 1727.5 1830.12 1728.87 1834.94 1730.25L1834.94 1750.53ZM1841.81 1731.97C1846.28 1733 1850.75 1733.69 1855.56 1734.37L1855.56 1755C1850.75 1754.31 1845.94 1753.28 1841.81 1752.59L1841.81 1731.97ZM1862.44 1735.06C1866.91 1735.41 1871.72 1736.09 1876.19 1736.09L1876.19 1756.72C1871.38 1756.37 1866.91 1756.03 1862.44 1755.69L1862.44 1735.06ZM1779.94 1657.72 1779.94 1658.75C1775.12 1658.06 1770.31 1657.03 1766.19 1656.34L1766.19 1636.06C1770.66 1637.09 1775.12 1637.78 1779.94 1638.47L1779.94 1657.72ZM1786.81 1685.22 1786.81 1671.47C1789.91 1674.22 1793.34 1676.62 1797.12 1678.34L1797.12 1697.94C1790.59 1693.47 1786.81 1689.34 1786.81 1685.22L1786.81 1685.22ZM1958.69 1685.22C1958.69 1689.34 1954.91 1693.81 1948.38 1697.59L1948.38 1678C1952.16 1676.28 1955.59 1673.87 1958.69 1671.12L1958.69 1685.22ZM1941.5 1701.03C1937.03 1703.09 1932.56 1704.47 1927.75 1705.84L1927.75 1685.56C1932.56 1684.53 1937.03 1682.81 1941.5 1681.09L1941.5 1701.03ZM1920.88 1707.56C1916.75 1708.59 1911.94 1709.28 1907.12 1709.97L1907.12 1689.34C1911.94 1688.66 1916.41 1687.97 1920.88 1686.94L1920.88 1707.56ZM1900.25 1711C1895.78 1711.34 1891.31 1712.03 1886.5 1712.03L1886.5 1691.41C1890.97 1691.06 1895.78 1690.72 1900.25 1690.37L1900.25 1711ZM1879.62 1712.37C1877.22 1712.37 1875.16 1712.37 1872.75 1712.37 1870.34 1712.37 1868.28 1712.37 1865.88 1712.37L1865.88 1691.75C1868.28 1691.75 1870.34 1691.75 1872.75 1691.75 1875.16 1691.75 1877.22 1691.75 1879.62 1691.75L1879.62 1712.37ZM1859 1712.37C1854.19 1712.03 1849.72 1711.69 1845.25 1711.34L1845.25 1690.72C1849.72 1691.06 1854.53 1691.75 1859 1691.75L1859 1712.37ZM1838.38 1710.31C1833.56 1709.62 1828.75 1708.59 1824.62 1707.91L1824.62 1687.62C1829.09 1688.66 1833.56 1689.34 1838.38 1690.03L1838.38 1710.31ZM1817.75 1705.84C1812.94 1704.47 1808.47 1703.09 1804 1701.03L1804 1681.09C1808.47 1682.81 1812.94 1684.19 1817.75 1685.56L1817.75 1705.84ZM1958.69 1657.72C1958.69 1670.78 1923.28 1685.22 1872.75 1685.22 1822.22 1685.22 1786.81 1670.78 1786.81 1657.72 1786.81 1644.66 1822.22 1630.22 1872.75 1630.22 1923.28 1630.22 1958.69 1644.66 1958.69 1657.72ZM1786.81 1643.97 1786.81 1638.81C1788.88 1639.16 1790.94 1639.16 1793 1639.5 1790.94 1640.87 1788.88 1642.25 1786.81 1643.97ZM1894.41 1624.03C1896.47 1622.66 1898.53 1621.28 1900.59 1619.56L1900.59 1624.72C1898.19 1624.37 1896.47 1624.37 1894.41 1624.03ZM1889.25 1593.09C1896.47 1597.22 1900.25 1601.69 1900.25 1605.81 1900.25 1611.66 1892.69 1618.19 1879.97 1623 1877.56 1623 1875.16 1623 1872.75 1623 1848.69 1623 1823.59 1626.44 1805.72 1633.31 1769.62 1632.28 1742.81 1623.69 1732.84 1614.06 1732.84 1614.06 1732.84 1614.06 1732.84 1614.06 1753.81 1620.59 1775.47 1623.69 1797.12 1623.34 1839.06 1623.34 1883.75 1612.69 1889.25 1593.09ZM1759.31 1634 1759.31 1654.28C1754.5 1652.91 1750.03 1651.53 1745.56 1649.47L1745.56 1629.53C1750.03 1631.25 1754.84 1632.97 1759.31 1634ZM1738.69 1626.44 1738.69 1646.03C1732.16 1641.91 1728.38 1637.78 1728.38 1633.66L1728.38 1619.91C1731.47 1622.31 1734.91 1624.72 1738.69 1626.44ZM1728.38 1604.78 1728.38 1584.84C1732.84 1586.56 1737.31 1587.94 1742.12 1589.31L1742.12 1609.59C1737.66 1608.22 1732.84 1606.84 1728.38 1604.78ZM1749 1611.31 1749 1591.03C1753.47 1592.06 1757.94 1592.75 1762.75 1593.44L1762.75 1614.06C1757.94 1613.37 1753.47 1612.34 1749 1611.31ZM1769.62 1614.75 1769.62 1594.12C1774.09 1594.47 1778.91 1595.16 1783.38 1595.16L1783.38 1615.78C1778.56 1615.78 1774.09 1615.44 1769.62 1614.75ZM1790.25 1616.12 1790.25 1595.5C1792.66 1595.5 1794.72 1595.5 1797.12 1595.5 1799.53 1595.5 1801.59 1595.5 1804 1595.5L1804 1616.12C1801.59 1616.12 1799.53 1616.12 1797.12 1616.12 1794.72 1616.12 1792.66 1616.47 1790.25 1616.12ZM1810.88 1616.12 1810.88 1595.5C1815.34 1595.16 1820.16 1594.81 1824.62 1594.47L1824.62 1615.09C1820.16 1615.44 1815.69 1615.78 1810.88 1616.12ZM1831.5 1614.06 1831.5 1593.44C1836.31 1592.75 1840.78 1592.06 1845.25 1591.03L1845.25 1611.31C1841.12 1612.34 1836.31 1613.37 1831.5 1614.06ZM1852.12 1609.59 1852.12 1589.31C1856.94 1588.28 1861.41 1586.56 1865.88 1584.84L1865.88 1604.78C1861.41 1606.84 1856.94 1608.22 1852.12 1609.59ZM1872.75 1601.34 1872.75 1581.75C1876.53 1580.03 1879.97 1577.62 1883.06 1574.87L1883.06 1588.62C1883.06 1593.09 1879.62 1597.22 1872.75 1601.34ZM1721.5 1601.34C1714.97 1597.22 1711.19 1593.09 1711.19 1588.97L1711.19 1575.22C1714.28 1577.97 1717.72 1580.37 1721.5 1582.09L1721.5 1601.34ZM1711.19 1561.47C1711.19 1548.41 1746.59 1533.97 1797.12 1533.97 1847.66 1533.97 1883.06 1548.41 1883.06 1561.47 1883.06 1574.53 1847.66 1588.97 1797.12 1588.97 1746.59 1588.97 1711.19 1574.19 1711.19 1561.47ZM1723.22 1640.53C1729.41 1653.25 1752.78 1661.5 1779.94 1665.28L1779.94 1680.75C1738.69 1678 1711.19 1665.28 1711.19 1653.94 1711.19 1649.47 1715.66 1645 1723.22 1640.53ZM1721.5 1694.16C1714.97 1690.03 1711.19 1685.91 1711.19 1681.78L1711.19 1668.03C1714.28 1670.78 1717.72 1673.19 1721.5 1674.91L1721.5 1694.16ZM1742.12 1702.41C1737.31 1701.03 1732.84 1699.66 1728.38 1697.59L1728.38 1677.66C1732.84 1679.37 1737.31 1680.75 1742.12 1682.12L1742.12 1702.41ZM1762.75 1706.87C1757.94 1706.19 1753.12 1705.16 1749 1704.47L1749 1684.19C1753.47 1685.22 1757.94 1685.91 1762.75 1686.59L1762.75 1706.87ZM1769.62 1686.94C1773.06 1687.28 1776.5 1687.62 1780.28 1687.97 1780.62 1690.37 1782 1692.78 1783.38 1695.19L1783.38 1708.94C1778.56 1708.59 1774.09 1708.25 1769.62 1707.91L1769.62 1686.94ZM1790.25 1701.37C1792.31 1702.75 1794.72 1704.12 1797.12 1705.5L1797.12 1708.94C1794.72 1708.94 1792.66 1708.94 1790.25 1708.94L1790.25 1701.37ZM1804 1729.91 1804 1716.16C1807.09 1718.91 1810.53 1721.31 1814.31 1723.03L1814.31 1742.62C1807.78 1738.16 1804 1734.03 1804 1729.91L1804 1729.91ZM1883.06 1736.44C1885.47 1736.44 1887.53 1736.44 1889.94 1736.44 1892.34 1736.44 1894.41 1736.44 1896.81 1736.44L1896.81 1757.06C1894.41 1757.06 1892.34 1757.06 1889.94 1757.06 1887.53 1757.06 1885.47 1757.06 1883.06 1757.06L1883.06 1736.44ZM1965.56 1722.69C1969.34 1720.97 1972.78 1718.56 1975.88 1715.81L1975.88 1729.56C1975.88 1733.69 1972.09 1738.16 1965.56 1741.94L1965.56 1722.69Z" fill="#FFC000"/></g></g></g><g><g><g><path d="M293.562 201.781 293.562 177.375C293.562 160.875 267.094 149.875 235.125 145.406L235.125 125.812C235.125 120.312 232.031 112.75 217.938 105.531L217.938 81.125C217.938 58.7812 170.156 46.75 125.125 46.75 80.0938 46.75 32.3125 58.7812 32.3125 81.125L32.3125 108.625C32.3125 116.875 38.8438 123.75 49.5 129.25L49.5 153.312C49.5 153.312 49.5 153.312 49.5 153.656 35.4062 160.875 32.3125 168.781 32.3125 173.938L32.3125 201.438C32.3125 223.781 80.0938 235.812 125.125 235.812L125.125 249.562C125.125 271.906 172.906 283.938 217.938 283.938 262.969 283.938 310.75 271.906 310.75 249.562L310.75 222.062C310.75 216.906 307.656 209 293.562 201.781ZM303.875 222.406C303.875 235.469 268.469 249.906 217.938 249.906 177.719 249.906 147.125 240.625 136.125 230.312 136.125 230.312 136.125 230.312 136.125 230.312 157.094 236.844 178.75 239.938 200.406 239.594 242.344 239.594 287.031 228.938 292.531 209.688 300.094 213.469 303.875 217.938 303.875 222.406ZM245.438 255.062 245.438 275.688C240.969 276.031 236.5 276.719 231.688 276.719L231.688 256.094C236.5 256.094 240.969 255.75 245.438 255.062ZM252.312 254.375C257.125 253.688 261.594 253 266.062 251.969L266.062 272.25C261.938 273.281 257.125 273.969 252.312 274.656L252.312 254.375ZM272.938 250.25C277.75 249.219 282.219 247.5 286.688 245.781L286.688 265.719C282.219 267.781 277.75 269.156 272.938 270.531L272.938 250.25ZM162.938 270.531C158.125 269.156 153.656 267.781 149.188 265.719L149.188 245.781C153.656 247.5 158.125 248.875 162.938 250.25L162.938 270.531ZM169.812 251.969C174.281 253 178.75 253.688 183.562 254.375L183.562 275C178.75 274.312 173.938 273.281 169.812 272.594L169.812 251.969ZM190.438 255.062C194.906 255.406 199.719 256.094 204.188 256.094L204.188 276.719C199.375 276.375 194.906 276.031 190.438 275.688L190.438 255.062ZM107.938 177.719 107.938 178.75C103.125 178.062 98.3125 177.031 94.1875 176.344L94.1875 156.062C98.6562 157.094 103.125 157.781 107.938 158.469L107.938 177.719ZM114.813 205.219 114.813 191.469C117.906 194.219 121.344 196.625 125.125 198.344L125.125 217.938C118.594 213.469 114.813 209.344 114.813 205.219L114.813 205.219ZM286.688 205.219C286.688 209.344 282.906 213.812 276.375 217.594L276.375 198C280.156 196.281 283.594 193.875 286.688 191.125L286.688 205.219ZM269.5 221.031C265.031 223.094 260.562 224.469 255.75 225.844L255.75 205.562C260.562 204.531 265.031 202.812 269.5 201.094L269.5 221.031ZM248.875 227.562C244.75 228.594 239.938 229.281 235.125 229.969L235.125 209.344C239.938 208.656 244.406 207.969 248.875 206.938L248.875 227.562ZM228.25 231C223.781 231.344 219.312 232.031 214.5 232.031L214.5 211.406C218.969 211.062 223.781 210.719 228.25 210.375L228.25 231ZM207.625 232.375C205.219 232.375 203.156 232.375 200.75 232.375 198.344 232.375 196.281 232.375 193.875 232.375L193.875 211.75C196.281 211.75 198.344 211.75 200.75 211.75 203.156 211.75 205.219 211.75 207.625 211.75L207.625 232.375ZM187 232.375C182.188 232.031 177.719 231.688 173.25 231.344L173.25 210.719C177.719 211.062 182.531 211.75 187 211.75L187 232.375ZM166.375 230.312C161.562 229.625 156.75 228.594 152.625 227.906L152.625 207.625C157.094 208.656 161.562 209.344 166.375 210.031L166.375 230.312ZM145.75 225.844C140.938 224.469 136.469 223.094 132 221.031L132 201.094C136.469 202.812 140.938 204.188 145.75 205.562L145.75 225.844ZM286.688 177.719C286.688 190.781 251.281 205.219 200.75 205.219 150.219 205.219 114.813 190.781 114.813 177.719 114.813 164.656 150.219 150.219 200.75 150.219 251.281 150.219 286.688 164.656 286.688 177.719ZM114.813 163.969 114.813 158.812C116.875 159.156 118.937 159.156 121 159.5 118.937 160.875 116.875 162.25 114.813 163.969ZM222.406 144.031C224.469 142.656 226.531 141.281 228.594 139.562L228.594 144.719C226.188 144.375 224.469 144.375 222.406 144.031ZM217.25 113.094C224.469 117.219 228.25 121.688 228.25 125.812 228.25 131.656 220.687 138.188 207.969 143 205.562 143 203.156 143 200.75 143 176.688 143 151.594 146.438 133.719 153.312 97.625 152.281 70.8125 143.688 60.8438 134.062 60.8438 134.062 60.8438 134.062 60.8438 134.062 81.8125 140.594 103.469 143.688 125.125 143.344 167.062 143.344 211.75 132.688 217.25 113.094ZM87.3125 154 87.3125 174.281C82.5 172.906 78.0312 171.531 73.5625 169.469L73.5625 149.531C78.0312 151.25 82.8438 152.969 87.3125 154ZM66.6875 146.438 66.6875 166.031C60.1562 161.906 56.375 157.781 56.375 153.656L56.375 139.906C59.4687 142.312 62.9062 144.719 66.6875 146.438ZM56.375 124.781 56.375 104.844C60.8438 106.562 65.3125 107.938 70.125 109.312L70.125 129.594C65.6562 128.219 60.8438 126.844 56.375 124.781ZM77 131.312 77 111.031C81.4688 112.062 85.9375 112.75 90.75 113.438L90.75 134.062C85.9375 133.375 81.4688 132.344 77 131.312ZM97.625 134.75 97.625 114.125C102.094 114.469 106.906 115.156 111.375 115.156L111.375 135.781C106.562 135.781 102.094 135.438 97.625 134.75ZM118.25 136.125 118.25 115.5C120.656 115.5 122.719 115.5 125.125 115.5 127.531 115.5 129.594 115.5 132 115.5L132 136.125C129.594 136.125 127.531 136.125 125.125 136.125 122.719 136.125 120.656 136.469 118.25 136.125ZM138.875 136.125 138.875 115.5C143.344 115.156 148.156 114.813 152.625 114.469L152.625 135.094C148.156 135.438 143.688 135.781 138.875 136.125ZM159.5 134.062 159.5 113.438C164.312 112.75 168.781 112.062 173.25 111.031L173.25 131.312C169.125 132.344 164.312 133.375 159.5 134.062ZM180.125 129.594 180.125 109.312C184.938 108.281 189.406 106.562 193.875 104.844L193.875 124.781C189.406 126.844 184.938 128.219 180.125 129.594ZM200.75 121.344 200.75 101.75C204.531 100.031 207.969 97.625 211.062 94.875L211.062 108.625C211.062 113.094 207.625 117.219 200.75 121.344ZM49.5 121.344C42.9688 117.219 39.1875 113.094 39.1875 108.969L39.1875 95.2188C42.2812 97.9688 45.7188 100.375 49.5 102.094L49.5 121.344ZM39.1875 81.4688C39.1875 68.4062 74.5938 53.9688 125.125 53.9688 175.656 53.9688 211.062 68.4062 211.062 81.4688 211.062 94.5312 175.656 108.969 125.125 108.969 74.5938 108.969 39.1875 94.1875 39.1875 81.4688ZM51.2188 160.531C57.4063 173.25 80.7812 181.5 107.938 185.281L107.938 200.75C66.6875 198 39.1875 185.281 39.1875 173.938 39.1875 169.469 43.6562 165 51.2188 160.531ZM49.5 214.156C42.9688 210.031 39.1875 205.906 39.1875 201.781L39.1875 188.031C42.2812 190.781 45.7188 193.188 49.5 194.906L49.5 214.156ZM70.125 222.406C65.3125 221.031 60.8438 219.656 56.375 217.594L56.375 197.656C60.8438 199.375 65.3125 200.75 70.125 202.125L70.125 222.406ZM90.75 226.875C85.9375 226.188 81.125 225.156 77 224.469L77 204.188C81.4688 205.219 85.9375 205.906 90.75 206.594L90.75 226.875ZM97.625 206.938C101.062 207.281 104.5 207.625 108.281 207.969 108.625 210.375 110 212.781 111.375 215.188L111.375 228.938C106.562 228.594 102.094 228.25 97.625 227.906L97.625 206.938ZM118.25 221.375C120.312 222.75 122.719 224.125 125.125 225.5L125.125 228.938C122.719 228.938 120.656 228.938 118.25 228.938L118.25 221.375ZM132 249.906 132 236.156C135.094 238.906 138.531 241.312 142.312 243.031L142.312 262.625C135.781 258.156 132 254.031 132 249.906L132 249.906ZM211.062 256.438C213.469 256.438 215.531 256.438 217.938 256.438 220.344 256.438 222.406 256.438 224.812 256.438L224.812 277.062C222.406 277.062 220.344 277.062 217.938 277.062 215.531 277.062 213.469 277.062 211.062 277.062L211.062 256.438ZM293.562 242.688C297.344 240.969 300.781 238.562 303.875 235.812L303.875 249.562C303.875 253.688 300.094 258.156 293.562 261.938L293.562 242.688Z" fill="#FFC000" transform="matrix(-1 0 0 1 2760 1470)"/></g></g></g></g></svg>