<svg width="96" height="96" xmlns="http://www.w3.org/2000/svg" xmlns:xlink="http://www.w3.org/1999/xlink" xml:space="preserve" overflow="hidden"><g transform="translate(-749 -41)"><path d="M832 90C831.5 90 831.1 89.7 830.8 89.4 830.3 88.9 830 88 830 87.1 830 85.8 830.9 84.8 831.7 84.2L831.8 84.1C833.7 85.1 834 86.1 834 87 834 88.6 833.1 90 832 90ZM804.8 70.3C804.5 71 803.7 71.5 803 71.5 802.7 71.5 802.4 71.4 802.2 71.3 799 69.8 795.5 69 792.2 69 790.3 69 788.4 69.3 786.5 69.8 785.4 70.1 784.3 69.5 784 68.4 783.7 67.3 784.3 66.2 785.4 65.9 787.6 65.3 789.9 65 792.1 65 795.9 65 800 65.9 803.7 67.6 804.8 68.1 805.3 69.3 804.8 70.3ZM839.3 78C836.8 77.6 833.7 78.3 831.2 79.7 828.9 79.2 825.4 79.2 822.2 80.3 817.5 69.1 804.4 61 792 61 787.7 61 783.4 62 779.5 63.8L767.2 58C766.4 57.6 765.5 58.4 765.8 59.2L769.8 70.5C767.4 73 765.4 75.9 764 79.1 763.8 79.7 763.3 80.1 762.6 80.3L759 81.2C757.2 81.6 756 83.2 756 85.1L756 92.9C756 94.7 757.2 96.3 759 96.8L762.7 97.7C763.3 97.9 763.8 98.3 764.1 98.9 765.8 102.8 768.4 106.3 771.6 109.2 771.9 109.5 772.2 109.9 772.3 110.4L773.8 119.5C774 120.5 774.8 121.2 775.8 121.2L782.4 121.2C783.4 121.2 784.2 120.5 784.4 119.5L784.9 116.3C787.2 116.9 789.6 117.2 792.1 117.2 794.8 117.2 797.6 116.8 800.2 116.1L800.8 119.5C801 120.5 801.8 121.2 802.8 121.2L809.4 121.2C810.4 121.2 811.2 120.5 811.4 119.5L812.9 110.4C813 109.9 813.2 109.5 813.6 109.2 819.7 103.9 824 96.9 824 89 824 87.3 823.8 85.7 823.4 84.1 824.6 83.7 825.9 83.4 827.1 83.4 826.4 84.5 826 85.7 826 87 825.9 89 826.7 90.9 828 92.3 829.1 93.4 830.5 94.1 832 94.1 835.3 94.1 838 91 838 87.1 838 85.2 837.3 83.5 835.9 82.2 836.9 82 837.8 81.9 838.7 82 839.8 82.2 840.8 81.4 841 80.3 841.1 79.2 840.4 78.2 839.3 78Z" fill="#FFA3FF"/></g></svg>