<svg width="1624" height="917" xmlns="http://www.w3.org/2000/svg" xmlns:xlink="http://www.w3.org/1999/xlink" xml:space="preserve" overflow="hidden"><defs><clipPath id="clip0"><rect x="1237" y="729" width="1624" height="917"/></clipPath></defs><g clip-path="url(#clip0)" transform="translate(-1237 -729)"><path d="M2600.68 1111.83C2600.68 1116.29 2595.52 1120.41 2586.92 1123.5L2586.92 1111.15C2591.74 1109.77 2596.56 1107.72 2600.68 1105.66L2600.68 1111.83ZM2573.16 1089.19 2573.16 1076.84C2577.98 1075.47 2582.79 1073.41 2586.92 1071.35L2586.92 1077.53C2586.92 1081.99 2581.76 1086.1 2573.16 1089.19ZM2573.16 1127.61C2569.03 1128.64 2564.22 1129.33 2559.4 1130.02L2559.4 1116.64C2563.87 1115.95 2568.69 1115.26 2573.16 1114.58L2573.16 1127.61ZM2545.64 1082.33C2550.11 1081.64 2554.93 1080.96 2559.4 1080.27L2559.4 1093.31C2555.27 1094.34 2550.46 1095.02 2545.64 1095.71L2545.64 1082.33ZM2545.64 1131.73C2541.17 1132.07 2536.7 1132.42 2531.88 1132.42L2531.88 1118.69C2536.01 1118.69 2540.82 1118.35 2545.64 1118.01L2545.64 1131.73ZM2518.12 1098.11 2518.12 1084.39C2522.25 1084.39 2527.06 1084.05 2531.88 1083.7L2531.88 1097.42C2527.41 1097.77 2522.93 1097.77 2518.12 1098.11ZM2518.12 1132.42C2513.3 1132.42 2508.83 1132.07 2504.36 1131.73L2504.36 1118.69C2506.77 1118.69 2508.83 1118.69 2511.24 1118.69 2513.3 1118.69 2515.71 1118.69 2518.12 1118.69L2518.12 1132.42ZM2490.6 1083.7C2495.07 1084.05 2499.54 1084.39 2504.36 1084.39L2504.36 1098.11C2499.54 1098.11 2495.07 1097.77 2490.6 1097.42L2490.6 1083.7ZM2490.6 1130.02C2485.78 1129.33 2480.96 1128.64 2476.83 1127.61L2476.83 1116.64C2481.31 1117.32 2485.78 1117.67 2490.6 1118.01L2490.6 1130.02ZM2463.07 1093.31 2463.07 1079.93C2467.55 1080.62 2472.02 1081.64 2476.83 1081.99L2476.83 1095.71C2472.02 1095.02 2467.2 1094.34 2463.07 1093.31ZM2463.07 1123.5C2454.47 1120.07 2449.31 1115.95 2449.31 1111.83L2449.31 1111.15C2449.31 1111.15 2449.31 1111.15 2449.66 1111.15 2450.69 1111.49 2451.38 1111.83 2452.41 1111.83 2455.85 1112.86 2459.29 1113.55 2463.07 1114.23L2463.07 1123.5ZM2408.03 1076.84C2410.44 1076.84 2412.5 1077.18 2414.91 1077.18L2414.91 1077.53C2414.91 1082.33 2415.94 1087.13 2418.35 1090.91 2414.91 1090.91 2411.47 1090.56 2408.03 1090.22L2408.03 1076.84ZM2394.27 1035.68C2398.74 1036.36 2403.21 1037.39 2408.03 1037.73L2408.03 1051.46C2403.21 1050.77 2398.4 1050.08 2394.27 1049.05L2394.27 1035.68ZM2394.27 1088.85C2389.45 1088.16 2384.64 1087.48 2380.51 1086.45L2380.51 1073.07C2384.98 1073.75 2389.45 1074.78 2394.27 1075.13L2394.27 1088.85ZM2366.75 1032.93 2366.75 1026.76C2370.88 1028.81 2375.35 1030.53 2380.51 1031.9L2380.51 1044.59C2371.91 1041.51 2366.75 1037.39 2366.75 1032.93ZM2366.75 1082.33C2358.15 1078.9 2352.99 1074.78 2352.99 1070.67L2352.99 1064.49C2357.11 1066.55 2361.59 1068.27 2366.75 1069.64L2366.75 1082.33ZM2352.99 975.297C2357.11 977.356 2361.59 979.071 2366.75 980.443L2366.75 993.136C2358.15 989.706 2352.99 985.589 2352.99 981.472L2352.99 975.297ZM2394.27 986.275 2394.27 999.997C2389.45 999.311 2384.64 998.625 2380.51 997.596L2380.51 984.217C2384.98 984.903 2389.45 985.589 2394.27 986.275ZM2428.67 926.583C2470.64 926.583 2504.36 935.846 2504.36 947.167 2504.36 958.488 2470.64 967.75 2428.67 967.75 2386.7 967.75 2352.99 958.488 2352.99 947.167 2352.99 935.846 2386.7 926.583 2428.67 926.583ZM2449.31 1089.19C2440.71 1085.76 2435.55 1081.64 2435.55 1077.53L2435.55 1071.35C2439.68 1073.41 2444.15 1075.13 2449.31 1076.5L2449.31 1089.19ZM2490.6 993.136 2490.6 980.786C2495.41 979.414 2500.23 977.356 2504.36 975.297L2504.36 981.472C2504.36 985.932 2499.2 990.049 2490.6 993.136ZM2463.07 999.654 2463.07 986.275C2467.55 985.589 2472.36 984.903 2476.83 984.217L2476.83 997.253C2472.71 998.282 2467.89 998.968 2463.07 999.654ZM2435.55 1002.06 2435.55 988.333C2439.68 988.333 2444.5 987.991 2449.31 987.647L2449.31 1001.37C2444.84 1001.71 2440.37 1001.71 2435.55 1002.06ZM2408.03 1001.37 2408.03 987.647C2412.5 987.991 2416.97 988.333 2421.79 988.333L2421.79 1002.06C2416.97 1001.71 2412.5 1001.71 2408.03 1001.37ZM2586.92 1043.22C2586.92 1054.54 2553.21 1063.81 2511.24 1063.81 2469.27 1063.81 2435.55 1054.54 2435.55 1043.22 2435.55 1031.9 2469.27 1022.64 2511.24 1022.64 2553.21 1022.64 2586.92 1031.9 2586.92 1043.22ZM2607.56 1053.51 2607.56 1043.22C2607.56 1027.1 2594.84 1015.43 2570.07 1008.92 2560.78 1006.52 2550.11 1004.46 2538.07 1003.43 2538.42 1002.06 2538.42 1000.34 2538.42 998.625 2538.42 989.02 2533.94 980.786 2524.65 974.611L2524.65 947.167C2524.65 931.043 2511.93 919.379 2487.16 912.861 2470.99 908.401 2450.34 906 2428.33 906 2399.43 906 2332 910.117 2332 947.167L2332 981.472C2332 991.078 2336.47 999.311 2345.76 1005.49L2345.76 1012C2337.5 1017.84 2332 1025.73 2332 1036.36L2332 1070.67C2332 1086.79 2344.73 1098.45 2369.5 1104.97 2385.67 1109.43 2406.31 1111.83 2428.33 1111.83 2428.33 1127.96 2441.06 1139.62 2465.83 1146.14 2482 1150.6 2502.64 1153 2524.65 1153 2553.55 1153 2620.98 1148.88 2620.98 1111.83L2620.98 1077.53C2621.33 1067.92 2616.85 1059.69 2607.56 1053.51Z" fill="#FFC000" fill-rule="evenodd"/><path d="M268.684 206.667C268.684 211.145 263.523 215.278 254.923 218.378L254.923 205.978C259.739 204.6 264.556 202.533 268.684 200.467L268.684 206.667ZM241.162 183.933 241.162 171.533C245.978 170.156 250.795 168.089 254.923 166.022L254.923 172.222C254.923 176.7 249.762 180.834 241.162 183.933ZM241.162 222.511C237.034 223.545 232.217 224.234 227.401 224.923L227.401 211.489C231.873 210.8 236.689 210.111 241.162 209.422L241.162 222.511ZM213.64 177.045C218.112 176.356 222.928 175.667 227.401 174.978L227.401 188.067C223.273 189.1 218.456 189.789 213.64 190.478L213.64 177.045ZM213.64 226.645C209.167 226.989 204.695 227.334 199.879 227.334L199.879 213.556C204.007 213.556 208.824 213.211 213.64 212.867L213.64 226.645ZM186.118 192.889 186.118 179.111C190.246 179.111 195.063 178.767 199.879 178.422L199.879 192.2C195.406 192.545 190.934 192.545 186.118 192.889ZM186.118 227.334C181.302 227.334 176.829 226.989 172.357 226.645L172.357 213.556C174.765 213.556 176.829 213.556 179.237 213.556 181.302 213.556 183.71 213.556 186.118 213.556L186.118 227.334ZM158.596 178.422C163.068 178.767 167.541 179.111 172.357 179.111L172.357 192.889C167.541 192.889 163.068 192.545 158.596 192.2L158.596 178.422ZM158.596 224.923C153.78 224.234 148.963 223.545 144.835 222.511L144.835 211.489C149.307 212.178 153.78 212.523 158.596 212.867L158.596 224.923ZM131.074 188.067 131.074 174.634C135.546 175.323 140.019 176.356 144.835 176.7L144.835 190.478C140.019 189.789 135.202 189.1 131.074 188.067ZM131.074 218.378C122.473 214.934 117.313 210.8 117.313 206.667L117.313 205.978C117.313 205.978 117.313 205.978 117.657 205.978 118.689 206.323 119.377 206.667 120.409 206.667 123.849 207.7 127.289 208.389 131.074 209.078L131.074 218.378ZM76.0298 171.533C78.4378 171.533 80.5019 171.878 82.9103 171.878L82.9103 172.222C82.9103 177.045 83.9422 181.867 86.3506 185.656 82.9103 185.656 79.47 185.311 76.0298 184.967L76.0298 171.533ZM62.2688 130.2C66.7409 130.889 71.2134 131.923 76.0298 132.267L76.0298 146.045C71.2134 145.356 66.3971 144.667 62.2688 143.634L62.2688 130.2ZM62.2688 183.589C57.4524 182.9 52.6361 182.211 48.5078 181.178L48.5078 167.745C52.9799 168.434 57.4524 169.467 62.2688 169.811L62.2688 183.589ZM34.7467 127.445 34.7467 121.245C38.875 123.311 43.3472 125.034 48.5078 126.411L48.5078 139.156C39.9069 136.056 34.7467 131.923 34.7467 127.445ZM34.7467 177.045C26.1459 173.6 20.9857 169.467 20.9857 165.333L20.9857 159.133C25.114 161.2 29.5862 162.923 34.7467 164.3L34.7467 177.045ZM20.9857 69.5778C25.114 71.6445 29.5862 73.3669 34.7467 74.7447L34.7467 87.489C26.1459 84.0445 20.9857 79.9112 20.9857 75.7778L20.9857 69.5778ZM62.2688 80.6001 62.2688 94.3779C57.4524 93.689 52.6361 93.0001 48.5078 91.9669L48.5078 78.5334C52.9799 79.2223 57.4524 79.9112 62.2688 80.6001ZM96.6713 20.6667C138.642 20.6667 172.357 29.9669 172.357 41.3334 172.357 52.7002 138.642 62 96.6713 62 54.6999 62 20.9857 52.7002 20.9857 41.3334 20.9857 29.9669 54.6999 20.6667 96.6713 20.6667ZM117.313 183.933C108.712 180.489 103.552 176.356 103.552 172.222L103.552 166.022C107.68 168.089 112.152 169.811 117.313 171.189L117.313 183.933ZM158.596 87.489 158.596 75.089C163.412 73.7112 168.229 71.6445 172.357 69.5778L172.357 75.7778C172.357 80.2558 167.196 84.3891 158.596 87.489ZM131.074 94.0336 131.074 80.6001C135.546 79.9112 140.362 79.2223 144.835 78.5334L144.835 91.6223C140.707 92.6558 135.89 93.3443 131.074 94.0336ZM103.552 96.4445 103.552 82.6667C107.68 82.6667 112.496 82.3225 117.313 81.9778L117.313 95.7556C112.84 96.1003 108.368 96.1003 103.552 96.4445ZM76.0298 95.7556 76.0298 81.9778C80.5019 82.3225 84.9741 82.6667 89.7908 82.6667L89.7908 96.4445C84.9741 96.1003 80.5019 96.1003 76.0298 95.7556ZM254.923 137.778C254.923 149.145 221.208 158.445 179.237 158.445 137.266 158.445 103.552 149.145 103.552 137.778 103.552 126.411 137.266 117.111 179.237 117.111 221.208 117.111 254.923 126.411 254.923 137.778ZM275.565 148.111 275.565 137.778C275.565 121.589 262.835 109.878 238.066 103.333 228.777 100.922 218.112 98.8558 206.071 97.8223 206.415 96.4445 206.415 94.7225 206.415 93.0001 206.415 83.3556 201.943 75.089 192.654 68.8889L192.654 41.3334C192.654 25.1443 179.925 13.4332 155.156 6.88889 138.986 2.41093 118.345 0 96.3271 0 67.429 0 0 4.13334 0 41.3334L0 75.7778C0 85.4223 4.47215 93.689 13.761 99.889L13.761 106.434C5.50441 112.289 0 120.211 0 130.889L0 165.333C0 181.522 12.7291 193.234 37.4986 199.778 53.668 204.256 74.3095 206.667 96.3271 206.667 96.3271 222.856 109.056 234.567 133.826 241.111 149.995 245.589 170.637 248 192.654 248 221.552 248 288.981 243.867 288.981 206.667L288.981 172.222C289.326 162.578 284.853 154.311 275.565 148.111Z" fill="#FFC000" fill-rule="evenodd" transform="matrix(-1 0 0 1 1766 931)"/><path d="M2448.16 1049.52C2443.17 1049.52 2439.18 1046.53 2436.19 1043.54 2431.2 1038.54 2428.21 1029.56 2428.21 1020.57 2428.21 1007.6 2437.18 997.612 2445.16 991.622L2446.16 990.623C2465.12 1000.61 2468.1 1010.59 2468.1 1019.58 2468.1 1035.55 2459.13 1049.52 2448.16 1049.52ZM2176.83 852.856C2173.83 859.844 2165.85 864.835 2158.87 864.835 2155.88 864.835 2152.89 863.837 2150.89 862.839 2118.97 847.864 2084.06 839.878 2051.14 839.878 2032.18 839.878 2013.23 842.873 1994.28 847.864 1983.3 850.859 1972.33 844.869 1969.34 833.887 1966.35 822.906 1972.33 811.925 1983.3 808.93 2005.25 802.94 2028.19 799.945 2050.14 799.945 2088.05 799.945 2128.94 808.93 2165.85 825.901 2176.83 830.893 2181.81 842.873 2176.83 852.856ZM2520.98 929.726C2496.04 925.733 2465.12 932.721 2440.18 946.697 2417.23 941.706 2382.32 941.706 2350.4 952.688 2303.51 840.876 2172.84 760.012 2049.14 760.012 2006.25 760.012 1963.35 769.995 1924.45 787.965L1801.75 730.063C1793.77 726.069 1784.79 734.055 1787.79 742.042L1827.69 854.852C1803.75 879.81 1783.8 908.761 1769.83 940.708 1767.84 946.697 1762.85 950.691 1755.87 952.688L1719.95 961.672C1702 965.666 1690.03 981.639 1690.03 1000.61L1690.03 1078.48C1690.03 1096.45 1702 1112.42 1719.95 1117.41L1756.86 1126.4C1762.85 1128.39 1767.84 1132.39 1770.83 1138.37 1787.79 1177.31 1813.72 1212.25 1845.64 1241.2 1848.64 1244.2 1851.63 1248.19 1852.63 1253.18L1867.59 1344.03C1869.58 1354.01 1877.56 1361 1887.54 1361L1953.38 1361C1963.35 1361 1971.33 1354.01 1973.33 1344.03L1978.32 1312.08C2001.26 1318.07 2025.2 1321.07 2050.14 1321.07 2077.07 1321.07 2105 1317.07 2130.94 1310.09L2136.93 1344.03C2138.92 1354.01 2146.9 1361 2156.88 1361L2222.71 1361C2232.69 1361 2240.67 1354.01 2242.66 1344.03L2257.63 1253.18C2258.63 1248.19 2260.62 1244.2 2264.61 1241.2 2325.46 1188.29 2368.35 1118.41 2368.35 1039.54 2368.35 1022.57 2366.36 1006.6 2362.37 990.623 2374.34 986.631 2387.31 983.636 2399.28 983.636 2392.29 994.617 2388.31 1006.6 2388.31 1019.58 2387.31 1039.54 2395.29 1058.51 2408.26 1072.49 2419.23 1083.47 2433.19 1090.46 2448.16 1090.46 2481.07 1090.46 2508.01 1059.51 2508.01 1020.57 2508.01 1001.61 2501.02 984.634 2487.06 971.656 2497.04 969.659 2506.01 968.66 2514.99 969.659 2525.97 971.656 2535.94 963.669 2537.93 952.688 2538.93 941.706 2531.95 931.723 2520.98 929.726Z" fill="#E59EDD" fill-rule="evenodd"/><path d="M2840.75 1288.67C2840.75 1293.14 2835.61 1297.28 2827.04 1300.38L2827.04 1287.98C2831.84 1286.6 2836.64 1284.53 2840.75 1282.47L2840.75 1288.67ZM2813.33 1265.93 2813.33 1253.53C2818.13 1252.16 2822.93 1250.09 2827.04 1248.02L2827.04 1254.22C2827.04 1258.7 2821.9 1262.83 2813.33 1265.93ZM2813.33 1304.51C2809.21 1305.54 2804.41 1306.23 2799.61 1306.92L2799.61 1293.49C2804.07 1292.8 2808.87 1292.11 2813.33 1291.42L2813.33 1304.51ZM2785.9 1259.04C2790.36 1258.36 2795.16 1257.67 2799.61 1256.98L2799.61 1270.07C2795.5 1271.1 2790.7 1271.79 2785.9 1272.48L2785.9 1259.04ZM2785.9 1308.64C2781.44 1308.99 2776.99 1309.33 2772.19 1309.33L2772.19 1295.56C2776.3 1295.56 2781.1 1295.21 2785.9 1294.87L2785.9 1308.64ZM2758.47 1274.89 2758.47 1261.11C2762.59 1261.11 2767.39 1260.77 2772.19 1260.42L2772.19 1274.2C2767.73 1274.54 2763.27 1274.54 2758.47 1274.89ZM2758.47 1309.33C2753.67 1309.33 2749.22 1308.99 2744.76 1308.64L2744.76 1295.56C2747.16 1295.56 2749.22 1295.56 2751.62 1295.56 2753.67 1295.56 2756.07 1295.56 2758.47 1295.56L2758.47 1309.33ZM2731.05 1260.42C2735.5 1260.77 2739.96 1261.11 2744.76 1261.11L2744.76 1274.89C2739.96 1274.89 2735.5 1274.54 2731.05 1274.2L2731.05 1260.42ZM2731.05 1306.92C2726.25 1306.23 2721.45 1305.54 2717.33 1304.51L2717.33 1293.49C2721.79 1294.18 2726.25 1294.52 2731.05 1294.87L2731.05 1306.92ZM2703.62 1270.07 2703.62 1256.63C2708.08 1257.32 2712.53 1258.36 2717.33 1258.7L2717.33 1272.48C2712.53 1271.79 2707.73 1271.1 2703.62 1270.07ZM2703.62 1300.38C2695.05 1296.93 2689.91 1292.8 2689.91 1288.67L2689.91 1287.98C2689.91 1287.98 2689.91 1287.98 2690.25 1287.98 2691.28 1288.32 2691.96 1288.67 2692.99 1288.67 2696.42 1289.7 2699.85 1290.39 2703.62 1291.08L2703.62 1300.38ZM2648.77 1253.53C2651.17 1253.53 2653.22 1253.88 2655.62 1253.88L2655.62 1254.22C2655.62 1259.04 2656.65 1263.87 2659.05 1267.66 2655.62 1267.66 2652.2 1267.31 2648.77 1266.97L2648.77 1253.53ZM2635.05 1212.2C2639.51 1212.89 2643.97 1213.92 2648.77 1214.27L2648.77 1228.04C2643.97 1227.36 2639.17 1226.67 2635.05 1225.63L2635.05 1212.2ZM2635.05 1265.59C2630.25 1264.9 2625.45 1264.21 2621.34 1263.18L2621.34 1249.74C2625.8 1250.43 2630.25 1251.47 2635.05 1251.81L2635.05 1265.59ZM2607.63 1209.44 2607.63 1203.24C2611.74 1205.31 2616.2 1207.03 2621.34 1208.41L2621.34 1221.16C2612.77 1218.06 2607.63 1213.92 2607.63 1209.44ZM2607.63 1259.04C2599.06 1255.6 2593.91 1251.47 2593.91 1247.33L2593.91 1241.13C2598.03 1243.2 2602.48 1244.92 2607.63 1246.3L2607.63 1259.04ZM2593.91 1151.58C2598.03 1153.64 2602.48 1155.37 2607.63 1156.74L2607.63 1169.49C2599.06 1166.04 2593.91 1161.91 2593.91 1157.78L2593.91 1151.58ZM2635.05 1162.6 2635.05 1176.38C2630.25 1175.69 2625.45 1175 2621.34 1173.97L2621.34 1160.53C2625.8 1161.22 2630.25 1161.91 2635.05 1162.6ZM2669.34 1102.67C2711.16 1102.67 2744.76 1111.97 2744.76 1123.33 2744.76 1134.7 2711.16 1144 2669.34 1144 2627.51 1144 2593.91 1134.7 2593.91 1123.33 2593.91 1111.97 2627.51 1102.67 2669.34 1102.67ZM2689.91 1265.93C2681.34 1262.49 2676.19 1258.36 2676.19 1254.22L2676.19 1248.02C2680.31 1250.09 2684.76 1251.81 2689.91 1253.19L2689.91 1265.93ZM2731.05 1169.49 2731.05 1157.09C2735.85 1155.71 2740.65 1153.64 2744.76 1151.58L2744.76 1157.78C2744.76 1162.26 2739.62 1166.39 2731.05 1169.49ZM2703.62 1176.03 2703.62 1162.6C2708.08 1161.91 2712.88 1161.22 2717.33 1160.53L2717.33 1173.62C2713.22 1174.66 2708.42 1175.34 2703.62 1176.03ZM2676.19 1178.44 2676.19 1164.67C2680.31 1164.67 2685.11 1164.32 2689.91 1163.98L2689.91 1177.76C2685.45 1178.1 2680.99 1178.1 2676.19 1178.44ZM2648.77 1177.76 2648.77 1163.98C2653.22 1164.32 2657.68 1164.67 2662.48 1164.67L2662.48 1178.44C2657.68 1178.1 2653.22 1178.1 2648.77 1177.76ZM2827.04 1219.78C2827.04 1231.14 2793.44 1240.44 2751.62 1240.44 2709.79 1240.44 2676.19 1231.14 2676.19 1219.78 2676.19 1208.41 2709.79 1199.11 2751.62 1199.11 2793.44 1199.11 2827.04 1208.41 2827.04 1219.78ZM2847.61 1230.11 2847.61 1219.78C2847.61 1203.59 2834.93 1191.88 2810.24 1185.33 2800.99 1182.92 2790.36 1180.86 2778.36 1179.82 2778.7 1178.44 2778.7 1176.72 2778.7 1175 2778.7 1165.36 2774.24 1157.09 2764.99 1150.89L2764.99 1123.33C2764.99 1107.14 2752.3 1095.43 2727.62 1088.89 2711.51 1084.41 2690.94 1082 2668.99 1082 2640.2 1082 2573 1086.13 2573 1123.33L2573 1157.78C2573 1167.42 2577.46 1175.69 2586.71 1181.89L2586.71 1188.43C2578.49 1194.29 2573 1202.21 2573 1212.89L2573 1247.33C2573 1263.52 2585.69 1275.23 2610.37 1281.78 2626.48 1286.26 2647.05 1288.67 2668.99 1288.67 2668.99 1304.86 2681.68 1316.57 2706.36 1323.11 2722.48 1327.59 2743.05 1330 2764.99 1330 2793.79 1330 2860.98 1325.87 2860.98 1288.67L2860.98 1254.22C2861.32 1244.58 2856.87 1236.31 2847.61 1230.11Z" fill="#FFC000" fill-rule="evenodd"/><path d="M268.684 205.833C268.684 210.293 263.523 214.41 254.923 217.497L254.923 205.147C259.739 203.775 264.556 201.717 268.684 199.658L268.684 205.833ZM241.162 183.192 241.162 170.842C245.978 169.47 250.795 167.411 254.923 165.353L254.923 171.528C254.923 175.988 249.762 180.104 241.162 183.192ZM241.162 221.614C237.034 222.643 232.217 223.329 227.401 224.016L227.401 210.636C231.873 209.95 236.689 209.264 241.162 208.578L241.162 221.614ZM213.64 176.331C218.112 175.645 222.928 174.958 227.401 174.272L227.401 187.308C223.273 188.338 218.456 189.024 213.64 189.71L213.64 176.331ZM213.64 225.731C209.167 226.074 204.695 226.417 199.879 226.417L199.879 212.695C204.007 212.695 208.824 212.352 213.64 212.008L213.64 225.731ZM186.118 192.111 186.118 178.389C190.246 178.389 195.063 178.046 199.879 177.703L199.879 191.425C195.406 191.768 190.934 191.768 186.118 192.111ZM186.118 226.417C181.302 226.417 176.829 226.074 172.357 225.731L172.357 212.695C174.765 212.695 176.829 212.695 179.237 212.695 181.302 212.695 183.71 212.695 186.118 212.695L186.118 226.417ZM158.596 177.703C163.068 178.046 167.541 178.389 172.357 178.389L172.357 192.111C167.541 192.111 163.068 191.768 158.596 191.425L158.596 177.703ZM158.596 224.016C153.78 223.329 148.963 222.643 144.835 221.614L144.835 210.636C149.307 211.322 153.78 211.666 158.596 212.008L158.596 224.016ZM131.074 187.308 131.074 173.929C135.546 174.616 140.019 175.645 144.835 175.988L144.835 189.71C140.019 189.024 135.202 188.338 131.074 187.308ZM131.074 217.497C122.473 214.067 117.313 209.95 117.313 205.833L117.313 205.147C117.313 205.147 117.313 205.147 117.657 205.147 118.689 205.491 119.377 205.833 120.409 205.833 123.849 206.863 127.289 207.549 131.074 208.235L131.074 217.497ZM76.0298 170.842C78.4378 170.842 80.5019 171.185 82.9103 171.185L82.9103 171.528C82.9103 176.331 83.9422 181.133 86.3506 184.907 82.9103 184.907 79.47 184.564 76.0298 184.221L76.0298 170.842ZM62.2688 129.675C66.7409 130.361 71.2134 131.391 76.0298 131.733L76.0298 145.456C71.2134 144.77 66.3971 144.083 62.2688 143.054L62.2688 129.675ZM62.2688 182.849C57.4524 182.163 52.6361 181.477 48.5078 180.447L48.5078 167.068C52.9799 167.754 57.4524 168.783 62.2688 169.127L62.2688 182.849ZM34.7467 126.931 34.7467 120.756C38.875 122.814 43.3472 124.529 48.5078 125.902L48.5078 138.595C39.9069 135.507 34.7467 131.391 34.7467 126.931ZM34.7467 176.331C26.1459 172.9 20.9857 168.783 20.9857 164.667L20.9857 158.492C25.114 160.55 29.5862 162.266 34.7467 163.638L34.7467 176.331ZM20.9857 69.2973C25.114 71.3556 29.5862 73.0711 34.7467 74.4433L34.7467 87.1362C26.1459 83.7056 20.9857 79.5889 20.9857 75.4723L20.9857 69.2973ZM62.2688 80.2751 62.2688 93.9973C57.4524 93.3112 52.6361 92.6251 48.5078 91.5961L48.5078 78.2167C52.9799 78.9028 57.4524 79.5889 62.2688 80.2751ZM96.6713 20.5833C138.642 20.5833 172.357 29.846 172.357 41.1667 172.357 52.4877 138.642 61.75 96.6713 61.75 54.6999 61.75 20.9857 52.4877 20.9857 41.1667 20.9857 29.846 54.6999 20.5833 96.6713 20.5833ZM117.313 183.192C108.712 179.761 103.552 175.645 103.552 171.528L103.552 165.353C107.68 167.411 112.152 169.127 117.313 170.499L117.313 183.192ZM158.596 87.1362 158.596 74.7862C163.412 73.4139 168.229 71.3556 172.357 69.2973L172.357 75.4723C172.357 79.9322 167.196 84.0489 158.596 87.1362ZM131.074 93.6544 131.074 80.2751C135.546 79.5889 140.362 78.9028 144.835 78.2167L144.835 91.2528C140.707 92.2822 135.89 92.9679 131.074 93.6544ZM103.552 96.0556 103.552 82.3334C107.68 82.3334 112.496 81.9905 117.313 81.6473L117.313 95.3695C112.84 95.7127 108.368 95.7127 103.552 96.0556ZM76.0298 95.3695 76.0298 81.6473C80.5019 81.9905 84.9741 82.3334 89.7908 82.3334L89.7908 96.0556C84.9741 95.7127 80.5019 95.7127 76.0298 95.3695ZM254.923 137.222C254.923 148.543 221.208 157.806 179.237 157.806 137.266 157.806 103.552 148.543 103.552 137.222 103.552 125.902 137.266 116.639 179.237 116.639 221.208 116.639 254.923 125.902 254.923 137.222ZM275.565 147.514 275.565 137.222C275.565 121.099 262.835 109.435 238.066 102.917 228.777 100.516 218.112 98.4572 206.071 97.4278 206.415 96.0556 206.415 94.3405 206.415 92.6251 206.415 83.0195 201.943 74.7862 192.654 68.6112L192.654 41.1667C192.654 25.0429 179.925 13.379 155.156 6.86112 138.986 2.40121 118.345 0 96.3271 0 67.429 0 0 4.11667 0 41.1667L0 75.4723C0 85.0778 4.47215 93.3112 13.761 99.4862L13.761 106.004C5.50441 111.836 0 119.727 0 130.361L0 164.667C0 180.79 12.7291 192.454 37.4986 198.972 53.668 203.432 74.3095 205.833 96.3271 205.833 96.3271 221.957 109.056 233.621 133.826 240.139 149.995 244.599 170.637 247 192.654 247 221.552 247 288.981 242.883 288.981 205.833L288.981 171.528C289.326 161.922 284.853 153.689 275.565 147.514Z" fill="#FFC000" fill-rule="evenodd" transform="matrix(-1 0 0 1 2668 1263)"/><path d="M2358.75 1578.83C2358.75 1583.29 2353.61 1587.41 2345.04 1590.5L2345.04 1578.15C2349.84 1576.78 2354.64 1574.72 2358.75 1572.66L2358.75 1578.83ZM2331.33 1556.19 2331.33 1543.84C2336.13 1542.47 2340.93 1540.41 2345.04 1538.35L2345.04 1544.53C2345.04 1548.99 2339.9 1553.1 2331.33 1556.19ZM2331.33 1594.61C2327.21 1595.64 2322.41 1596.33 2317.61 1597.02L2317.61 1583.64C2322.07 1582.95 2326.87 1582.26 2331.33 1581.58L2331.33 1594.61ZM2303.9 1549.33C2308.36 1548.64 2313.16 1547.96 2317.61 1547.27L2317.61 1560.31C2313.5 1561.34 2308.7 1562.02 2303.9 1562.71L2303.9 1549.33ZM2303.9 1598.73C2299.44 1599.07 2294.99 1599.42 2290.19 1599.42L2290.19 1585.69C2294.3 1585.69 2299.1 1585.35 2303.9 1585.01L2303.9 1598.73ZM2276.47 1565.11 2276.47 1551.39C2280.59 1551.39 2285.39 1551.05 2290.19 1550.7L2290.19 1564.43C2285.73 1564.77 2281.27 1564.77 2276.47 1565.11ZM2276.47 1599.42C2271.67 1599.42 2267.22 1599.07 2262.76 1598.73L2262.76 1585.69C2265.16 1585.69 2267.22 1585.69 2269.62 1585.69 2271.67 1585.69 2274.07 1585.69 2276.47 1585.69L2276.47 1599.42ZM2249.05 1550.7C2253.5 1551.05 2257.96 1551.39 2262.76 1551.39L2262.76 1565.11C2257.96 1565.11 2253.5 1564.77 2249.05 1564.43L2249.05 1550.7ZM2249.05 1597.02C2244.25 1596.33 2239.45 1595.64 2235.33 1594.61L2235.33 1583.64C2239.79 1584.32 2244.25 1584.67 2249.05 1585.01L2249.05 1597.02ZM2221.62 1560.31 2221.62 1546.93C2226.08 1547.62 2230.53 1548.64 2235.33 1548.99L2235.33 1562.71C2230.53 1562.02 2225.73 1561.34 2221.62 1560.31ZM2221.62 1590.5C2213.05 1587.07 2207.91 1582.95 2207.91 1578.83L2207.91 1578.15C2207.91 1578.15 2207.91 1578.15 2208.25 1578.15 2209.28 1578.49 2209.96 1578.83 2210.99 1578.83 2214.42 1579.86 2217.85 1580.55 2221.62 1581.23L2221.62 1590.5ZM2166.77 1543.84C2169.17 1543.84 2171.22 1544.18 2173.62 1544.18L2173.62 1544.53C2173.62 1549.33 2174.65 1554.13 2177.05 1557.91 2173.62 1557.91 2170.2 1557.56 2166.77 1557.22L2166.77 1543.84ZM2153.05 1502.67C2157.51 1503.36 2161.97 1504.39 2166.77 1504.73L2166.77 1518.46C2161.97 1517.77 2157.17 1517.08 2153.05 1516.05L2153.05 1502.67ZM2153.05 1555.85C2148.25 1555.16 2143.45 1554.48 2139.34 1553.45L2139.34 1540.07C2143.8 1540.75 2148.25 1541.78 2153.05 1542.13L2153.05 1555.85ZM2125.63 1499.93 2125.63 1493.76C2129.74 1495.81 2134.2 1497.53 2139.34 1498.9L2139.34 1511.59C2130.77 1508.51 2125.63 1504.39 2125.63 1499.93ZM2125.63 1549.33C2117.06 1545.9 2111.91 1541.78 2111.91 1537.67L2111.91 1531.49C2116.03 1533.55 2120.48 1535.27 2125.63 1536.64L2125.63 1549.33ZM2111.91 1442.3C2116.03 1444.36 2120.48 1446.07 2125.63 1447.44L2125.63 1460.14C2117.06 1456.71 2111.91 1452.59 2111.91 1448.47L2111.91 1442.3ZM2153.05 1453.27 2153.05 1467C2148.25 1466.31 2143.45 1465.62 2139.34 1464.6L2139.34 1451.22C2143.8 1451.9 2148.25 1452.59 2153.05 1453.27ZM2187.34 1393.58C2229.16 1393.58 2262.76 1402.85 2262.76 1414.17 2262.76 1425.49 2229.16 1434.75 2187.34 1434.75 2145.51 1434.75 2111.91 1425.49 2111.91 1414.17 2111.91 1402.85 2145.51 1393.58 2187.34 1393.58ZM2207.91 1556.19C2199.34 1552.76 2194.19 1548.64 2194.19 1544.53L2194.19 1538.35C2198.31 1540.41 2202.76 1542.13 2207.91 1543.5L2207.91 1556.19ZM2249.05 1460.14 2249.05 1447.79C2253.85 1446.41 2258.65 1444.36 2262.76 1442.3L2262.76 1448.47C2262.76 1452.93 2257.62 1457.05 2249.05 1460.14ZM2221.62 1466.65 2221.62 1453.27C2226.08 1452.59 2230.88 1451.9 2235.33 1451.22L2235.33 1464.25C2231.22 1465.28 2226.42 1465.97 2221.62 1466.65ZM2194.19 1469.06 2194.19 1455.33C2198.31 1455.33 2203.11 1454.99 2207.91 1454.65L2207.91 1468.37C2203.45 1468.71 2198.99 1468.71 2194.19 1469.06ZM2166.77 1468.37 2166.77 1454.65C2171.22 1454.99 2175.68 1455.33 2180.48 1455.33L2180.48 1469.06C2175.68 1468.71 2171.22 1468.71 2166.77 1468.37ZM2345.04 1510.22C2345.04 1521.54 2311.44 1530.81 2269.62 1530.81 2227.79 1530.81 2194.19 1521.54 2194.19 1510.22 2194.19 1498.9 2227.79 1489.64 2269.62 1489.64 2311.44 1489.64 2345.04 1498.9 2345.04 1510.22ZM2365.61 1520.51 2365.61 1510.22C2365.61 1494.1 2352.93 1482.43 2328.24 1475.92 2318.99 1473.52 2308.36 1471.46 2296.36 1470.43 2296.7 1469.06 2296.7 1467.34 2296.7 1465.62 2296.7 1456.02 2292.24 1447.79 2282.99 1441.61L2282.99 1414.17C2282.99 1398.04 2270.3 1386.38 2245.62 1379.86 2229.51 1375.4 2208.94 1373 2186.99 1373 2158.2 1373 2091 1377.12 2091 1414.17L2091 1448.47C2091 1458.08 2095.46 1466.31 2104.71 1472.49L2104.71 1479C2096.49 1484.84 2091 1492.73 2091 1503.36L2091 1537.67C2091 1553.79 2103.69 1565.45 2128.37 1571.97 2144.48 1576.43 2165.05 1578.83 2186.99 1578.83 2186.99 1594.96 2199.68 1606.62 2224.36 1613.14 2240.48 1617.6 2261.05 1620 2282.99 1620 2311.79 1620 2378.98 1615.88 2378.98 1578.83L2378.98 1544.53C2379.32 1534.92 2374.87 1526.69 2365.61 1520.51Z" fill="#FFC000" fill-rule="evenodd"/><path d="M217.551 205.833C217.551 210.293 213.372 214.41 206.408 217.497L206.408 205.147C210.308 203.775 214.208 201.717 217.551 199.658L217.551 205.833ZM195.266 183.192 195.266 170.842C199.166 169.47 203.066 167.411 206.408 165.353L206.408 171.528C206.408 175.988 202.23 180.104 195.266 183.192ZM195.266 221.614C191.924 222.643 188.024 223.329 184.124 224.016L184.124 210.636C187.745 209.95 191.645 209.264 195.266 208.578L195.266 221.614ZM172.982 176.331C176.603 175.645 180.503 174.958 184.124 174.272L184.124 187.308C180.782 188.338 176.882 189.024 172.982 189.71L172.982 176.331ZM172.982 225.731C169.361 226.074 165.74 226.417 161.84 226.417L161.84 212.695C165.183 212.695 169.082 212.352 172.982 212.008L172.982 225.731ZM150.698 192.111 150.698 178.389C154.04 178.389 157.94 178.046 161.84 177.703L161.84 191.425C158.219 191.768 154.598 191.768 150.698 192.111ZM150.698 226.417C146.798 226.417 143.177 226.074 139.556 225.731L139.556 212.695C141.505 212.695 143.177 212.695 145.127 212.695 146.798 212.695 148.748 212.695 150.698 212.695L150.698 226.417ZM128.413 177.703C132.035 178.046 135.656 178.389 139.556 178.389L139.556 192.111C135.656 192.111 132.035 191.768 128.413 191.425L128.413 177.703ZM128.413 224.016C124.514 223.329 120.614 222.643 117.271 221.614L117.271 210.636C120.892 211.322 124.514 211.666 128.413 212.008L128.413 224.016ZM106.129 187.308 106.129 173.929C109.75 174.616 113.372 175.645 117.271 175.988L117.271 189.71C113.372 189.024 109.472 188.338 106.129 187.308ZM106.129 217.497C99.1652 214.067 94.987 209.95 94.987 205.833L94.987 205.147C94.987 205.147 94.987 205.147 95.2654 205.147 96.1012 205.491 96.6583 205.833 97.4938 205.833 100.279 206.863 103.065 207.549 106.129 208.235L106.129 217.497ZM61.5605 170.842C63.5103 170.842 65.1816 171.185 67.1316 171.185L67.1316 171.528C67.1316 176.331 67.9671 181.133 69.9171 184.907 67.1316 184.907 64.3461 184.564 61.5605 184.221L61.5605 170.842ZM50.4184 129.675C54.0394 130.361 57.6608 131.391 61.5605 131.733L61.5605 145.456C57.6608 144.77 53.761 144.083 50.4184 143.054L50.4184 129.675ZM50.4184 182.849C46.5186 182.163 42.6189 181.477 39.2762 180.447L39.2762 167.068C42.8973 167.754 46.5186 168.783 50.4184 169.127L50.4184 182.849ZM28.1341 126.931 28.1341 120.756C31.4767 122.814 35.0978 124.529 39.2762 125.902L39.2762 138.595C32.3122 135.507 28.1341 131.391 28.1341 126.931ZM28.1341 176.331C21.1701 172.9 16.9919 168.783 16.9919 164.667L16.9919 158.492C20.3346 160.55 23.9556 162.266 28.1341 163.638L28.1341 176.331ZM16.9919 69.2973C20.3346 71.3556 23.9556 73.0711 28.1341 74.4433L28.1341 87.1362C21.1701 83.7056 16.9919 79.5889 16.9919 75.4723L16.9919 69.2973ZM50.4184 80.2751 50.4184 93.9973C46.5186 93.3112 42.6189 92.6251 39.2762 91.5961L39.2762 78.2167C42.8973 78.9028 46.5186 79.5889 50.4184 80.2751ZM78.2738 20.5833C112.257 20.5833 139.556 29.846 139.556 41.1667 139.556 52.4877 112.257 61.75 78.2738 61.75 44.2899 61.75 16.9919 52.4877 16.9919 41.1667 16.9919 29.846 44.2899 20.5833 78.2738 20.5833ZM94.987 183.192C88.023 179.761 83.8448 175.645 83.8448 171.528L83.8448 165.353C87.1875 167.411 90.8085 169.127 94.987 170.499L94.987 183.192ZM128.413 87.1362 128.413 74.7862C132.313 73.4139 136.213 71.3556 139.556 69.2973L139.556 75.4723C139.556 79.9322 135.377 84.0489 128.413 87.1362ZM106.129 93.6544 106.129 80.2751C109.75 79.5889 113.65 78.9028 117.271 78.2167L117.271 91.2528C113.929 92.2822 110.029 92.9679 106.129 93.6544ZM83.8448 96.0556 83.8448 82.3334C87.1875 82.3334 91.0872 81.9905 94.987 81.6473L94.987 95.3695C91.3656 95.7127 87.7446 95.7127 83.8448 96.0556ZM61.5605 95.3695 61.5605 81.6473C65.1816 81.9905 68.8026 82.3334 72.7027 82.3334L72.7027 96.0556C68.8026 95.7127 65.1816 95.7127 61.5605 95.3695ZM206.408 137.222C206.408 148.543 179.11 157.806 145.127 157.806 111.143 157.806 83.8448 148.543 83.8448 137.222 83.8448 125.902 111.143 116.639 145.127 116.639 179.11 116.639 206.408 125.902 206.408 137.222ZM223.122 147.514 223.122 137.222C223.122 121.099 212.815 109.435 192.759 102.917 185.238 100.516 176.603 98.4572 166.854 97.4278 167.132 96.0556 167.132 94.3405 167.132 92.6251 167.132 83.0195 163.511 74.7862 155.99 68.6112L155.99 41.1667C155.99 25.0429 145.684 13.379 125.628 6.86112 112.536 2.40121 95.8225 0 77.9951 0 54.5965 0 0 4.11667 0 41.1667L0 75.4723C0 85.0778 3.62105 93.3112 11.1422 99.4862L11.1422 106.004C4.45686 111.836 0 119.727 0 130.361L0 164.667C0 180.79 10.3066 192.454 30.3622 198.972 43.4544 203.432 60.1676 205.833 77.9951 205.833 77.9951 221.957 88.3017 233.621 108.358 240.139 121.449 244.599 138.163 247 155.99 247 179.389 247 233.985 242.883 233.985 205.833L233.985 171.528C234.264 161.922 230.643 153.689 223.122 147.514Z" fill="#FFC000" fill-rule="evenodd" transform="matrix(-1 0 0 1 2469 1165)"/><path d="M267.754 205.833C267.754 210.293 262.612 214.41 254.041 217.497L254.041 205.147C258.841 203.775 263.64 201.717 267.754 199.658L267.754 205.833ZM240.327 183.192 240.327 170.842C245.127 169.47 249.927 167.411 254.041 165.353L254.041 171.528C254.041 175.988 248.898 180.104 240.327 183.192ZM240.327 221.614C236.213 222.643 231.414 223.329 226.614 224.016L226.614 210.636C231.071 209.95 235.87 209.264 240.327 208.578L240.327 221.614ZM212.901 176.331C217.357 175.645 222.157 174.958 226.614 174.272L226.614 187.308C222.5 188.338 217.7 189.024 212.901 189.71L212.901 176.331ZM212.901 225.731C208.444 226.074 203.987 226.417 199.187 226.417L199.187 212.695C203.301 212.695 208.101 212.352 212.901 212.008L212.901 225.731ZM185.474 192.111 185.474 178.389C189.588 178.389 194.388 178.046 199.187 177.703L199.187 191.425C194.73 191.768 190.274 191.768 185.474 192.111ZM185.474 226.417C180.674 226.417 176.217 226.074 171.76 225.731L171.76 212.695C174.16 212.695 176.217 212.695 178.617 212.695 180.674 212.695 183.074 212.695 185.474 212.695L185.474 226.417ZM158.047 177.703C162.504 178.046 166.961 178.389 171.76 178.389L171.76 192.111C166.961 192.111 162.504 191.768 158.047 191.425L158.047 177.703ZM158.047 224.016C153.247 223.329 148.448 222.643 144.334 221.614L144.334 210.636C148.79 211.322 153.247 211.666 158.047 212.008L158.047 224.016ZM130.62 187.308 130.62 173.929C135.077 174.616 139.534 175.645 144.334 175.988L144.334 189.71C139.534 189.024 134.734 188.338 130.62 187.308ZM130.62 217.497C122.049 214.067 116.907 209.95 116.907 205.833L116.907 205.147C116.907 205.147 116.907 205.147 117.25 205.147 118.278 205.491 118.964 205.833 119.992 205.833 123.421 206.863 126.849 207.549 130.62 208.235L130.62 217.497ZM75.7667 170.842C78.1664 170.842 80.2234 171.185 82.6234 171.185L82.6234 171.528C82.6234 176.331 83.6517 181.133 86.0518 184.907 82.6234 184.907 79.195 184.564 75.7667 184.221L75.7667 170.842ZM62.0533 129.675C66.51 130.361 70.967 131.391 75.7667 131.733L75.7667 145.456C70.967 144.77 66.1673 144.083 62.0533 143.054L62.0533 129.675ZM62.0533 182.849C57.2536 182.163 52.4539 181.477 48.3399 180.447L48.3399 167.068C52.7966 167.754 57.2536 168.783 62.0533 169.127L62.0533 182.849ZM34.6265 126.931 34.6265 120.756C38.7405 122.814 43.1972 124.529 48.3399 125.902L48.3399 138.595C39.7689 135.507 34.6265 131.391 34.6265 126.931ZM34.6265 176.331C26.0555 172.9 20.9131 168.783 20.9131 164.667L20.9131 158.492C25.0271 160.55 29.4838 162.266 34.6265 163.638L34.6265 176.331ZM20.9131 69.2973C25.0271 71.3556 29.4838 73.0711 34.6265 74.4433L34.6265 87.1362C26.0555 83.7056 20.9131 79.5889 20.9131 75.4723L20.9131 69.2973ZM62.0533 80.2751 62.0533 93.9973C57.2536 93.3112 52.4539 92.6251 48.3399 91.5961L48.3399 78.2167C52.7966 78.9028 57.2536 79.5889 62.0533 80.2751ZM96.3368 20.5833C138.163 20.5833 171.76 29.846 171.76 41.1667 171.76 52.4877 138.163 61.75 96.3368 61.75 54.5106 61.75 20.9131 52.4877 20.9131 41.1667 20.9131 29.846 54.5106 20.5833 96.3368 20.5833ZM116.907 183.192C108.336 179.761 103.194 175.645 103.194 171.528L103.194 165.353C107.308 167.411 111.764 169.127 116.907 170.499L116.907 183.192ZM158.047 87.1362 158.047 74.7862C162.847 73.4139 167.646 71.3556 171.76 69.2973L171.76 75.4723C171.76 79.9322 166.618 84.0489 158.047 87.1362ZM130.62 93.6544 130.62 80.2751C135.077 79.5889 139.877 78.9028 144.334 78.2167L144.334 91.2528C140.22 92.2822 135.42 92.9679 130.62 93.6544ZM103.194 96.0556 103.194 82.3334C107.308 82.3334 112.107 81.9905 116.907 81.6473L116.907 95.3695C112.45 95.7127 107.993 95.7127 103.194 96.0556ZM75.7667 95.3695 75.7667 81.6473C80.2234 81.9905 84.68 82.3334 89.4801 82.3334L89.4801 96.0556C84.68 95.7127 80.2234 95.7127 75.7667 95.3695ZM254.041 137.222C254.041 148.543 220.443 157.806 178.617 157.806 136.791 157.806 103.194 148.543 103.194 137.222 103.194 125.902 136.791 116.639 178.617 116.639 220.443 116.639 254.041 125.902 254.041 137.222ZM274.611 147.514 274.611 137.222C274.611 121.099 261.926 109.435 237.242 102.917 227.985 100.516 217.357 98.4572 205.358 97.4278 205.701 96.0556 205.701 94.3405 205.701 92.6251 205.701 83.0195 201.244 74.7862 191.988 68.6112L191.988 41.1667C191.988 25.0429 179.303 13.379 154.619 6.86112 138.505 2.40121 117.935 0 95.9938 0 67.1956 0 0 4.11667 0 41.1667L0 75.4723C0 85.0778 4.45667 93.3112 13.7134 99.4862L13.7134 106.004C5.48536 111.836 0 119.727 0 130.361L0 164.667C0 180.79 12.6851 192.454 37.3688 198.972 53.4823 203.432 74.0524 205.833 95.9938 205.833 95.9938 221.957 108.679 233.621 133.363 240.139 149.476 244.599 170.046 247 191.988 247 220.786 247 287.981 242.883 287.981 205.833L287.981 171.528C288.324 161.922 283.867 153.689 274.611 147.514Z" fill="#FFC000" fill-rule="evenodd" transform="matrix(-1 0 0 1 1525 1108)"/><path d="M1698.68 1494.67C1698.68 1499.14 1693.52 1503.28 1684.92 1506.38L1684.92 1493.98C1689.74 1492.6 1694.56 1490.53 1698.68 1488.47L1698.68 1494.67ZM1671.16 1471.93 1671.16 1459.53C1675.98 1458.16 1680.8 1456.09 1684.92 1454.02L1684.92 1460.22C1684.92 1464.7 1679.76 1468.83 1671.16 1471.93ZM1671.16 1510.51C1667.03 1511.54 1662.22 1512.23 1657.4 1512.92L1657.4 1499.49C1661.87 1498.8 1666.69 1498.11 1671.16 1497.42L1671.16 1510.51ZM1643.64 1465.04C1648.11 1464.36 1652.93 1463.67 1657.4 1462.98L1657.4 1476.07C1653.27 1477.1 1648.46 1477.79 1643.64 1478.48L1643.64 1465.04ZM1643.64 1514.64C1639.17 1514.99 1634.7 1515.33 1629.88 1515.33L1629.88 1501.56C1634.01 1501.56 1638.82 1501.21 1643.64 1500.87L1643.64 1514.64ZM1616.12 1480.89 1616.12 1467.11C1620.25 1467.11 1625.06 1466.77 1629.88 1466.42L1629.88 1480.2C1625.41 1480.54 1620.93 1480.54 1616.12 1480.89ZM1616.12 1515.33C1611.3 1515.33 1606.83 1514.99 1602.36 1514.64L1602.36 1501.56C1604.77 1501.56 1606.83 1501.56 1609.24 1501.56 1611.3 1501.56 1613.71 1501.56 1616.12 1501.56L1616.12 1515.33ZM1588.6 1466.42C1593.07 1466.77 1597.54 1467.11 1602.36 1467.11L1602.36 1480.89C1597.54 1480.89 1593.07 1480.54 1588.6 1480.2L1588.6 1466.42ZM1588.6 1512.92C1583.78 1512.23 1578.96 1511.54 1574.84 1510.51L1574.84 1499.49C1579.31 1500.18 1583.78 1500.52 1588.6 1500.87L1588.6 1512.92ZM1561.07 1476.07 1561.07 1462.63C1565.55 1463.32 1570.02 1464.36 1574.84 1464.7L1574.84 1478.48C1570.02 1477.79 1565.2 1477.1 1561.07 1476.07ZM1561.07 1506.38C1552.47 1502.93 1547.31 1498.8 1547.31 1494.67L1547.31 1493.98C1547.31 1493.98 1547.31 1493.98 1547.66 1493.98 1548.69 1494.32 1549.38 1494.67 1550.41 1494.67 1553.85 1495.7 1557.29 1496.39 1561.07 1497.08L1561.07 1506.38ZM1506.03 1459.53C1508.44 1459.53 1510.5 1459.88 1512.91 1459.88L1512.91 1460.22C1512.91 1465.04 1513.94 1469.87 1516.35 1473.66 1512.91 1473.66 1509.47 1473.31 1506.03 1472.97L1506.03 1459.53ZM1492.27 1418.2C1496.74 1418.89 1501.21 1419.92 1506.03 1420.27L1506.03 1434.04C1501.21 1433.36 1496.4 1432.67 1492.27 1431.63L1492.27 1418.2ZM1492.27 1471.59C1487.45 1470.9 1482.64 1470.21 1478.51 1469.18L1478.51 1455.74C1482.98 1456.43 1487.45 1457.47 1492.27 1457.81L1492.27 1471.59ZM1464.75 1415.44 1464.75 1409.24C1468.88 1411.31 1473.35 1413.03 1478.51 1414.41L1478.51 1427.16C1469.91 1424.06 1464.75 1419.92 1464.75 1415.44ZM1464.75 1465.04C1456.15 1461.6 1450.99 1457.47 1450.99 1453.33L1450.99 1447.13C1455.11 1449.2 1459.59 1450.92 1464.75 1452.3L1464.75 1465.04ZM1450.99 1357.58C1455.11 1359.64 1459.59 1361.37 1464.75 1362.74L1464.75 1375.49C1456.15 1372.04 1450.99 1367.91 1450.99 1363.78L1450.99 1357.58ZM1492.27 1368.6 1492.27 1382.38C1487.45 1381.69 1482.64 1381 1478.51 1379.97L1478.51 1366.53C1482.98 1367.22 1487.45 1367.91 1492.27 1368.6ZM1526.67 1308.67C1568.64 1308.67 1602.36 1317.97 1602.36 1329.33 1602.36 1340.7 1568.64 1350 1526.67 1350 1484.7 1350 1450.99 1340.7 1450.99 1329.33 1450.99 1317.97 1484.7 1308.67 1526.67 1308.67ZM1547.31 1471.93C1538.71 1468.49 1533.55 1464.36 1533.55 1460.22L1533.55 1454.02C1537.68 1456.09 1542.15 1457.81 1547.31 1459.19L1547.31 1471.93ZM1588.6 1375.49 1588.6 1363.09C1593.41 1361.71 1598.23 1359.64 1602.36 1357.58L1602.36 1363.78C1602.36 1368.26 1597.2 1372.39 1588.6 1375.49ZM1561.07 1382.03 1561.07 1368.6C1565.55 1367.91 1570.36 1367.22 1574.84 1366.53L1574.84 1379.62C1570.71 1380.66 1565.89 1381.34 1561.07 1382.03ZM1533.55 1384.44 1533.55 1370.67C1537.68 1370.67 1542.5 1370.32 1547.31 1369.98L1547.31 1383.76C1542.84 1384.1 1538.37 1384.1 1533.55 1384.44ZM1506.03 1383.76 1506.03 1369.98C1510.5 1370.32 1514.97 1370.67 1519.79 1370.67L1519.79 1384.44C1514.97 1384.1 1510.5 1384.1 1506.03 1383.76ZM1684.92 1425.78C1684.92 1437.14 1651.21 1446.44 1609.24 1446.44 1567.27 1446.44 1533.55 1437.14 1533.55 1425.78 1533.55 1414.41 1567.27 1405.11 1609.24 1405.11 1651.21 1405.11 1684.92 1414.41 1684.92 1425.78ZM1705.56 1436.11 1705.56 1425.78C1705.56 1409.59 1692.84 1397.88 1668.07 1391.33 1658.78 1388.92 1648.11 1386.86 1636.07 1385.82 1636.42 1384.44 1636.42 1382.72 1636.42 1381 1636.42 1371.36 1631.94 1363.09 1622.65 1356.89L1622.65 1329.33C1622.65 1313.14 1609.93 1301.43 1585.16 1294.89 1568.99 1290.41 1548.34 1288 1526.33 1288 1497.43 1288 1430 1292.13 1430 1329.33L1430 1363.78C1430 1373.42 1434.47 1381.69 1443.76 1387.89L1443.76 1394.43C1435.5 1400.29 1430 1408.21 1430 1418.89L1430 1453.33C1430 1469.52 1442.73 1481.23 1467.5 1487.78 1483.67 1492.26 1504.31 1494.67 1526.33 1494.67 1526.33 1510.86 1539.06 1522.57 1563.83 1529.11 1580 1533.59 1600.64 1536 1622.65 1536 1651.55 1536 1718.98 1531.87 1718.98 1494.67L1718.98 1460.22C1719.33 1450.58 1714.85 1442.31 1705.56 1436.11Z" fill="#FFC000" fill-rule="evenodd"/><path d="M267.755 206.667C267.755 211.144 262.612 215.278 254.041 218.378L254.041 205.978C258.841 204.6 263.641 202.533 267.755 200.467L267.755 206.667ZM240.328 183.933 240.328 171.533C245.127 170.155 249.927 168.089 254.041 166.022L254.041 172.222C254.041 176.7 248.898 180.833 240.328 183.933ZM240.328 222.511C236.214 223.544 231.414 224.233 226.614 224.922L226.614 211.489C231.071 210.8 235.871 210.111 240.328 209.422L240.328 222.511ZM212.901 177.044C217.358 176.355 222.157 175.667 226.614 174.978L226.614 188.067C222.5 189.1 217.701 189.789 212.901 190.478L212.901 177.044ZM212.901 226.644C208.444 226.989 203.987 227.333 199.188 227.333L199.188 213.555C203.302 213.555 208.101 213.211 212.901 212.867L212.901 226.644ZM185.474 192.889 185.474 179.111C189.588 179.111 194.388 178.767 199.188 178.422L199.188 192.2C194.73 192.544 190.274 192.544 185.474 192.889ZM185.474 227.333C180.674 227.333 176.217 226.989 171.761 226.644L171.761 213.555C174.16 213.555 176.217 213.555 178.617 213.555 180.674 213.555 183.074 213.555 185.474 213.555L185.474 227.333ZM158.047 178.422C162.504 178.767 166.961 179.111 171.761 179.111L171.761 192.889C166.961 192.889 162.504 192.544 158.047 192.2L158.047 178.422ZM158.047 224.922C153.248 224.233 148.448 223.544 144.334 222.511L144.334 211.489C148.791 212.178 153.248 212.522 158.047 212.867L158.047 224.922ZM130.62 188.067 130.62 174.633C135.077 175.322 139.534 176.355 144.334 176.7L144.334 190.478C139.534 189.789 134.734 189.1 130.62 188.067ZM130.62 218.378C122.049 214.933 116.907 210.8 116.907 206.667L116.907 205.978C116.907 205.978 116.907 205.978 117.25 205.978 118.278 206.322 118.964 206.667 119.992 206.667 123.421 207.7 126.849 208.389 130.62 209.078L130.62 218.378ZM75.7668 171.533C78.1665 171.533 80.2235 171.878 82.6235 171.878L82.6235 172.222C82.6235 177.044 83.6518 181.867 86.0519 185.656 82.6235 185.656 79.1952 185.311 75.7668 184.966L75.7668 171.533ZM62.0534 130.2C66.5101 130.889 70.9671 131.922 75.7668 132.267L75.7668 146.044C70.9671 145.355 66.1674 144.667 62.0534 143.633L62.0534 130.2ZM62.0534 183.589C57.2537 182.9 52.454 182.211 48.34 181.178L48.34 167.745C52.7966 168.433 57.2537 169.467 62.0534 169.811L62.0534 183.589ZM34.6266 127.444 34.6266 121.244C38.7406 123.311 43.1973 125.033 48.34 126.411L48.34 139.155C39.7689 136.056 34.6266 131.922 34.6266 127.444ZM34.6266 177.044C26.0555 173.6 20.9131 169.467 20.9131 165.333L20.9131 159.133C25.0272 161.2 29.4838 162.922 34.6266 164.3L34.6266 177.044ZM20.9131 69.5777C25.0272 71.6444 29.4838 73.3668 34.6266 74.7446L34.6266 87.4888C26.0555 84.0444 20.9131 79.9111 20.9131 75.7777L20.9131 69.5777ZM62.0534 80.5999 62.0534 94.3777C57.2537 93.6888 52.454 92.9999 48.34 91.9668L48.34 78.5333C52.7966 79.2222 57.2537 79.9111 62.0534 80.5999ZM96.3369 20.6667C138.163 20.6667 171.761 29.9668 171.761 41.3333 171.761 52.7001 138.163 62 96.3369 62 54.5106 62 20.9131 52.7001 20.9131 41.3333 20.9131 29.9668 54.5106 20.6667 96.3369 20.6667ZM116.907 183.933C108.336 180.489 103.194 176.355 103.194 172.222L103.194 166.022C107.308 168.089 111.764 169.811 116.907 171.189L116.907 183.933ZM158.047 87.4888 158.047 75.0888C162.847 73.7111 167.647 71.6444 171.761 69.5777L171.761 75.7777C171.761 80.2557 166.618 84.389 158.047 87.4888ZM130.62 94.0334 130.62 80.5999C135.077 79.9111 139.877 79.2222 144.334 78.5333L144.334 91.6222C140.22 92.6557 135.42 93.3442 130.62 94.0334ZM103.194 96.4444 103.194 82.6666C107.308 82.6666 112.107 82.3223 116.907 81.9777L116.907 95.7555C112.45 96.1001 107.993 96.1001 103.194 96.4444ZM75.7668 95.7555 75.7668 81.9777C80.2235 82.3223 84.6802 82.6666 89.4802 82.6666L89.4802 96.4444C84.6802 96.1001 80.2235 96.1001 75.7668 95.7555ZM254.041 137.778C254.041 149.145 220.443 158.444 178.617 158.444 136.791 158.444 103.194 149.145 103.194 137.778 103.194 126.411 136.791 117.111 178.617 117.111 220.443 117.111 254.041 126.411 254.041 137.778ZM274.611 148.111 274.611 137.778C274.611 121.589 261.926 109.878 237.242 103.333 227.986 100.922 217.358 98.8557 205.359 97.8222 205.701 96.4444 205.701 94.7223 205.701 92.9999 205.701 83.3555 201.245 75.0888 191.988 68.8888L191.988 41.3333C191.988 25.1442 179.303 13.4331 154.619 6.88888 138.505 2.41093 117.935 0 95.9939 0 67.1957 0 0 4.13333 0 41.3333L0 75.7777C0 85.4222 4.45668 93.6888 13.7134 99.8888L13.7134 106.433C5.48537 112.289 0 120.211 0 130.889L0 165.333C0 181.522 12.6851 193.233 37.3689 199.778 53.4823 204.256 74.0524 206.667 95.9939 206.667 95.9939 222.856 108.679 234.567 133.363 241.111 149.476 245.589 170.046 248 191.988 248 220.786 248 287.982 243.867 287.982 206.667L287.982 172.222C288.325 162.578 283.868 154.311 274.611 148.111Z" fill="#FFC000" fill-rule="evenodd" transform="matrix(-1 0 0 1 2007 1398)"/><path d="M1846.55 1396.67C1846.55 1401.14 1842.37 1405.28 1835.41 1408.38L1835.41 1395.98C1839.31 1394.6 1843.21 1392.53 1846.55 1390.47L1846.55 1396.67ZM1824.27 1373.93 1824.27 1361.53C1828.17 1360.16 1832.07 1358.09 1835.41 1356.02L1835.41 1362.22C1835.41 1366.7 1831.23 1370.83 1824.27 1373.93ZM1824.27 1412.51C1820.92 1413.54 1817.02 1414.23 1813.12 1414.92L1813.12 1401.49C1816.75 1400.8 1820.65 1400.11 1824.27 1399.42L1824.27 1412.51ZM1801.98 1367.04C1805.6 1366.36 1809.5 1365.67 1813.12 1364.98L1813.12 1378.07C1809.78 1379.1 1805.88 1379.79 1801.98 1380.48L1801.98 1367.04ZM1801.98 1416.64C1798.36 1416.99 1794.74 1417.33 1790.84 1417.33L1790.84 1403.56C1794.18 1403.56 1798.08 1403.21 1801.98 1402.87L1801.98 1416.64ZM1779.7 1382.89 1779.7 1369.11C1783.04 1369.11 1786.94 1368.77 1790.84 1368.42L1790.84 1382.2C1787.22 1382.54 1783.6 1382.54 1779.7 1382.89ZM1779.7 1417.33C1775.8 1417.33 1772.18 1416.99 1768.56 1416.64L1768.56 1403.56C1770.51 1403.56 1772.18 1403.56 1774.13 1403.56 1775.8 1403.56 1777.75 1403.56 1779.7 1403.56L1779.7 1417.33ZM1757.41 1368.42C1761.03 1368.77 1764.66 1369.11 1768.56 1369.11L1768.56 1382.89C1764.66 1382.89 1761.03 1382.54 1757.41 1382.2L1757.41 1368.42ZM1757.41 1414.92C1753.51 1414.23 1749.61 1413.54 1746.27 1412.51L1746.27 1401.49C1749.89 1402.18 1753.51 1402.52 1757.41 1402.87L1757.41 1414.92ZM1735.13 1378.07 1735.13 1364.63C1738.75 1365.32 1742.37 1366.36 1746.27 1366.7L1746.27 1380.48C1742.37 1379.79 1738.47 1379.1 1735.13 1378.07ZM1735.13 1408.38C1728.17 1404.93 1723.99 1400.8 1723.99 1396.67L1723.99 1395.98C1723.99 1395.98 1723.99 1395.98 1724.27 1395.98 1725.1 1396.32 1725.66 1396.67 1726.49 1396.67 1729.28 1397.7 1732.06 1398.39 1735.13 1399.08L1735.13 1408.38ZM1690.56 1361.53C1692.51 1361.53 1694.18 1361.88 1696.13 1361.88L1696.13 1362.22C1696.13 1367.04 1696.97 1371.87 1698.92 1375.66 1696.13 1375.66 1693.35 1375.31 1690.56 1374.97L1690.56 1361.53ZM1679.42 1320.2C1683.04 1320.89 1686.66 1321.92 1690.56 1322.27L1690.56 1336.04C1686.66 1335.36 1682.76 1334.67 1679.42 1333.63L1679.42 1320.2ZM1679.42 1373.59C1675.52 1372.9 1671.62 1372.21 1668.28 1371.18L1668.28 1357.74C1671.9 1358.43 1675.52 1359.47 1679.42 1359.81L1679.42 1373.59ZM1657.13 1317.44 1657.13 1311.24C1660.48 1313.31 1664.1 1315.03 1668.28 1316.41L1668.28 1329.16C1661.31 1326.06 1657.13 1321.92 1657.13 1317.44ZM1657.13 1367.04C1650.17 1363.6 1645.99 1359.47 1645.99 1355.33L1645.99 1349.13C1649.33 1351.2 1652.96 1352.92 1657.13 1354.3L1657.13 1367.04ZM1645.99 1259.58C1649.33 1261.64 1652.96 1263.37 1657.13 1264.74L1657.13 1277.49C1650.17 1274.04 1645.99 1269.91 1645.99 1265.78L1645.99 1259.58ZM1679.42 1270.6 1679.42 1284.38C1675.52 1283.69 1671.62 1283 1668.28 1281.97L1668.28 1268.53C1671.9 1269.22 1675.52 1269.91 1679.42 1270.6ZM1707.27 1210.67C1741.26 1210.67 1768.56 1219.97 1768.56 1231.33 1768.56 1242.7 1741.26 1252 1707.27 1252 1673.29 1252 1645.99 1242.7 1645.99 1231.33 1645.99 1219.97 1673.29 1210.67 1707.27 1210.67ZM1723.99 1373.93C1717.02 1370.49 1712.84 1366.36 1712.84 1362.22L1712.84 1356.02C1716.19 1358.09 1719.81 1359.81 1723.99 1361.19L1723.99 1373.93ZM1757.41 1277.49 1757.41 1265.09C1761.31 1263.71 1765.21 1261.64 1768.56 1259.58L1768.56 1265.78C1768.56 1270.26 1764.38 1274.39 1757.41 1277.49ZM1735.13 1284.03 1735.13 1270.6C1738.75 1269.91 1742.65 1269.22 1746.27 1268.53L1746.27 1281.62C1742.93 1282.66 1739.03 1283.34 1735.13 1284.03ZM1712.84 1286.44 1712.84 1272.67C1716.19 1272.67 1720.09 1272.32 1723.99 1271.98L1723.99 1285.76C1720.37 1286.1 1716.74 1286.1 1712.84 1286.44ZM1690.56 1285.76 1690.56 1271.98C1694.18 1272.32 1697.8 1272.67 1701.7 1272.67L1701.7 1286.44C1697.8 1286.1 1694.18 1286.1 1690.56 1285.76ZM1835.41 1327.78C1835.41 1339.14 1808.11 1348.44 1774.13 1348.44 1740.14 1348.44 1712.84 1339.14 1712.84 1327.78 1712.84 1316.41 1740.14 1307.11 1774.13 1307.11 1808.11 1307.11 1835.41 1316.41 1835.41 1327.78ZM1852.12 1338.11 1852.12 1327.78C1852.12 1311.59 1841.82 1299.88 1821.76 1293.33 1814.24 1290.92 1805.6 1288.86 1795.85 1287.82 1796.13 1286.44 1796.13 1284.72 1796.13 1283 1796.13 1273.36 1792.51 1265.09 1784.99 1258.89L1784.99 1231.33C1784.99 1215.14 1774.68 1203.43 1754.63 1196.89 1741.54 1192.41 1724.82 1190 1707 1190 1683.6 1190 1629 1194.13 1629 1231.33L1629 1265.78C1629 1275.42 1632.62 1283.69 1640.14 1289.89L1640.14 1296.43C1633.46 1302.29 1629 1310.21 1629 1320.89L1629 1355.33C1629 1371.52 1639.31 1383.23 1659.36 1389.78 1672.45 1394.26 1689.17 1396.67 1707 1396.67 1707 1412.86 1717.3 1424.57 1737.36 1431.11 1750.45 1435.59 1767.16 1438 1784.99 1438 1808.39 1438 1862.99 1433.87 1862.99 1396.67L1862.99 1362.22C1863.26 1352.58 1859.64 1344.31 1852.12 1338.11Z" fill="#FFC000" fill-rule="evenodd"/><g><g><g><path d="M189 189C157.5 146.947 126 126 94.4999 126 59.706 126 31.5 154.206 31.5 189 31.5 223.793 59.706 252 94.4999 252 126 252 157.5 231.052 189 189ZM189 189C220.5 231.052 252 252 283.5 252 318.293 252 346.5 223.793 346.5 189 346.5 154.206 318.293 126 283.5 126 252 126 220.5 146.947 189 189Z" stroke="#FFFFFF" stroke-width="31.5002" stroke-linecap="round" stroke-linejoin="round" fill="none" transform="matrix(1 0 0 1 1865 885)"/></g></g></g></g></svg>