<svg width="96" height="96" xmlns="http://www.w3.org/2000/svg" xmlns:xlink="http://www.w3.org/1999/xlink" xml:space="preserve" overflow="hidden"><g transform="translate(-578 -72)"><path d="M650.9 118.5C647.4 122.1 644.1 124.4 636.9 125.2 638.8 123.3 641 121.4 642.9 119.1 643.7 118.2 645.2 116.2 645.2 116.1 646.9 113.3 647.9 110.1 647.9 106.6L647.9 93.6 654.9 93.6 654.9 108.8C655 109 655.2 114 650.9 118.5ZM601.2 118.5C596.8 114 597 109 597 108.8L597 93.5 604 93.5 604 106.5C604 110 605 113.2 606.7 116 606.7 116.1 608.2 118.2 609 119 611 121.3 613.1 123.2 615 125.1 608 124.3 604.6 122 601.2 118.5ZM661 108.5 661 87.5 648 87.5 648 80.5 626 80.5 604 80.5 604 87.5 591 87.5 591 108.4C591 109.4 591 116.3 596.7 122.4 602.2 128.2 608.9 131.2 620.6 131.4 621.5 132.9 622 134.6 622 136.4L622 149.4 617 149.4C614.8 149.4 613 151.2 613 153.4L608 153.4C605.8 153.4 604 155.2 604 157.4L604 159.4 648 159.4 648 157.4C648 155.2 646.2 153.4 644 153.4L639 153.4C639 151.2 637.2 149.4 635 149.4L630 149.4 630 136.5C630 134.7 630.5 133 631.4 131.5 643.1 131.3 649.8 128.2 655.3 122.5 661 116.5 661 109.5 661 108.5Z" fill="#FFC000"/></g></svg>