<svg width="96" height="96" xmlns="http://www.w3.org/2000/svg" xmlns:xlink="http://www.w3.org/1999/xlink" xml:space="preserve" overflow="hidden"><g transform="translate(-358 -234)"><path d="M378 313 386 313 386 319 378 319Z" fill="#7F7F7F"/><path d="M426 313 434 313 434 319 426 319Z" fill="#7F7F7F"/><path d="M436 245 376 245C373.8 245 372 246.8 372 249L372 309C372 311.2 373.8 313 376 313L436 313C438.2 313 440 311.2 440 309L440 249C440 246.8 438.2 245 436 245ZM434 307 378 307 378 251 434 251 434 307Z" fill="#7F7F7F"/><path d="M382 255 382 303 430 303 430 255 382 255ZM396 289C390.5 289 386 284.5 386 279 386 273.5 390.5 269 396 269 401.5 269 406 273.5 406 279 406 284.5 401.5 289 396 289ZM426 287C426 288.1 425.1 289 424 289 422.9 289 422 288.1 422 287L422 271C422 269.9 422.9 269 424 269 425.1 269 426 269.9 426 271L426 287Z" fill="#7F7F7F"/><path d="M404 277 401.6 277C401 275.3 399.7 274 398 273.4L398 271 394 271 394 273.4C392.3 274 391 275.4 390.4 277L388 277 388 281 390.4 281C391 282.7 392.3 284 394 284.6L394 287 398 287 398 284.6C399.7 284 401 282.6 401.6 281L404 281 404 277Z" fill="#7F7F7F"/></g></svg>