<svg width="650" height="398" xmlns="http://www.w3.org/2000/svg" xmlns:xlink="http://www.w3.org/1999/xlink" xml:space="preserve" overflow="hidden"><g transform="translate(-1985 -1046)"><g><g><g><path d="M285.312 168.438C283.594 168.438 282.219 167.406 281.188 166.375 279.469 164.656 278.438 161.562 278.438 158.469 278.438 154 281.531 150.562 284.281 148.5L284.625 148.156C291.156 151.594 292.188 155.031 292.188 158.125 292.188 163.625 289.094 168.438 285.312 168.438ZM191.812 100.719C190.781 103.125 188.031 104.844 185.625 104.844 184.594 104.844 183.562 104.5 182.875 104.156 171.875 99 159.844 96.25 148.5 96.25 141.969 96.25 135.438 97.2812 128.906 99 125.125 100.031 121.344 97.9688 120.312 94.1875 119.281 90.4062 121.344 86.625 125.125 85.5938 132.688 83.5312 140.594 82.5 148.156 82.5 161.219 82.5 175.312 85.5938 188.031 91.4375 191.812 93.1562 193.531 97.2812 191.812 100.719ZM310.406 127.188C301.812 125.812 291.156 128.219 282.562 133.031 274.656 131.312 262.625 131.312 251.625 135.094 235.469 96.5938 190.438 68.75 147.812 68.75 133.031 68.75 118.25 72.1875 104.844 78.375L62.5625 58.4375C59.8125 57.0625 56.7188 59.8125 57.75 62.5625L71.5 101.406C63.25 110 56.375 119.969 51.5625 130.969 50.875 133.031 49.1562 134.406 46.75 135.094L34.375 138.188C28.1875 139.562 24.0625 145.062 24.0625 151.594L24.0625 178.406C24.0625 184.594 28.1875 190.094 34.375 191.812L47.0938 194.906C49.1562 195.594 50.875 196.969 51.9062 199.031 57.75 212.438 66.6875 224.469 77.6875 234.437 78.7188 235.469 79.75 236.844 80.0938 238.562L85.25 269.844C85.9375 273.281 88.6875 275.688 92.125 275.688L114.813 275.688C118.25 275.688 121 273.281 121.688 269.844L123.406 258.844C131.312 260.906 139.562 261.938 148.156 261.938 157.438 261.938 167.062 260.562 176 258.156L178.062 269.844C178.75 273.281 181.5 275.688 184.938 275.688L207.625 275.688C211.062 275.688 213.812 273.281 214.5 269.844L219.656 238.562C220 236.844 220.687 235.469 222.062 234.437 243.031 216.219 257.812 192.156 257.812 165 257.812 159.156 257.125 153.656 255.75 148.156 259.875 146.781 264.344 145.75 268.469 145.75 266.062 149.531 264.688 153.656 264.688 158.125 264.344 165 267.094 171.531 271.562 176.344 275.344 180.125 280.156 182.531 285.312 182.531 296.656 182.531 305.938 171.875 305.938 158.469 305.938 151.938 303.531 146.094 298.719 141.625 302.156 140.938 305.25 140.594 308.344 140.938 312.125 141.625 315.562 138.875 316.25 135.094 316.594 131.312 314.188 127.875 310.406 127.188Z" fill="#E59EDD" transform="matrix(-1 0 0 1 2315 1114)"/></g></g></g><g><g><g><path d="M108.937 64.3124C108.281 64.3124 107.756 63.9187 107.362 63.5249 106.706 62.8687 106.312 61.6874 106.312 60.5062 106.312 58.7999 107.494 57.4874 108.544 56.6999L108.675 56.5687C111.169 57.8812 111.562 59.1937 111.562 60.3749 111.562 62.4749 110.381 64.3124 108.937 64.3124ZM73.2374 38.4562C72.8436 39.3749 71.7936 40.0312 70.8749 40.0312 70.4811 40.0312 70.0874 39.8999 69.8249 39.7687 65.6249 37.7999 61.0312 36.7499 56.6999 36.7499 54.2062 36.7499 51.7124 37.1437 49.2187 37.7999 47.7749 38.1937 46.3312 37.4062 45.9374 35.9624 45.5437 34.5187 46.3312 33.075 47.7749 32.6812 50.6624 31.8937 53.6812 31.5 56.5687 31.5 61.5562 31.5 66.9374 32.6812 71.7936 34.9124 73.2374 35.5687 73.8936 37.1437 73.2374 38.4562ZM118.519 48.5624C115.237 48.0374 111.169 48.9562 107.887 50.7937 104.869 50.1374 100.275 50.1374 96.0748 51.5812 89.9061 36.8812 72.7124 26.25 56.4374 26.25 50.7937 26.25 45.1499 27.5625 40.0312 29.925L23.8875 22.3125C22.8375 21.7875 21.6562 22.8375 22.05 23.8875L27.3 38.7187C24.15 41.9999 21.525 45.8062 19.6875 50.0062 19.425 50.7937 18.7687 51.3187 17.85 51.5812L13.125 52.7624C10.7625 53.2874 9.18749 55.3874 9.18749 57.8812L9.18749 68.1186C9.18749 70.4811 10.7625 72.5811 13.125 73.2374L17.9812 74.4186C18.7687 74.6811 19.425 75.2061 19.8187 75.9936 22.05 81.1124 25.4625 85.7061 29.6625 89.5124 30.0562 89.9061 30.45 90.4311 30.5812 91.0874L32.5499 103.031C32.8125 104.344 33.8624 105.262 35.1749 105.262L43.8374 105.262C45.1499 105.262 46.1999 104.344 46.4624 103.031L47.1187 98.8311C50.1374 99.6186 53.2874 100.012 56.5687 100.012 60.1124 100.012 63.7874 99.4874 67.1999 98.5686L67.9874 103.031C68.2499 104.344 69.2999 105.262 70.6124 105.262L79.2749 105.262C80.5874 105.262 81.6374 104.344 81.8999 103.031L83.8686 91.0874C83.9999 90.4311 84.2624 89.9061 84.7874 89.5124 92.7936 82.5561 98.4373 73.3686 98.4373 62.9999 98.4373 60.7687 98.1749 58.6687 97.6498 56.5687 99.2248 56.0437 100.931 55.6499 102.506 55.6499 101.587 57.0937 101.062 58.6687 101.062 60.3749 100.931 62.9999 101.981 65.4937 103.687 67.3311 105.131 68.7749 106.969 69.6936 108.937 69.6936 113.269 69.6936 116.812 65.6249 116.812 60.5062 116.812 58.0124 115.894 55.7812 114.056 54.0749 115.369 53.8124 116.55 53.6812 117.731 53.8124 119.175 54.0749 120.487 53.0249 120.75 51.5812 120.881 50.1374 119.962 48.8249 118.519 48.5624Z" fill="#E59EDD" transform="matrix(-1 0 0 1 2398 1299)"/></g></g></g><g><g><g><path d="M108.937 64.3124C108.281 64.3124 107.756 63.9187 107.362 63.5249 106.706 62.8687 106.312 61.6874 106.312 60.5062 106.312 58.7999 107.494 57.4874 108.544 56.6999L108.675 56.5687C111.169 57.8812 111.562 59.1937 111.562 60.3749 111.562 62.4749 110.381 64.3124 108.937 64.3124ZM73.2374 38.4562C72.8436 39.3749 71.7936 40.0312 70.8749 40.0312 70.4811 40.0312 70.0874 39.8999 69.8249 39.7687 65.6249 37.7999 61.0312 36.7499 56.6999 36.7499 54.2062 36.7499 51.7124 37.1437 49.2187 37.7999 47.7749 38.1937 46.3312 37.4062 45.9374 35.9624 45.5437 34.5187 46.3312 33.075 47.7749 32.6812 50.6624 31.8937 53.6812 31.5 56.5687 31.5 61.5562 31.5 66.9374 32.6812 71.7936 34.9124 73.2374 35.5687 73.8936 37.1437 73.2374 38.4562ZM118.519 48.5624C115.237 48.0374 111.169 48.9562 107.887 50.7937 104.869 50.1374 100.275 50.1374 96.0748 51.5812 89.9061 36.8812 72.7124 26.25 56.4374 26.25 50.7937 26.25 45.1499 27.5625 40.0312 29.925L23.8875 22.3125C22.8375 21.7875 21.6562 22.8375 22.05 23.8875L27.3 38.7187C24.15 41.9999 21.525 45.8062 19.6875 50.0062 19.425 50.7937 18.7687 51.3187 17.85 51.5812L13.125 52.7624C10.7625 53.2874 9.18749 55.3874 9.18749 57.8812L9.18749 68.1186C9.18749 70.4811 10.7625 72.5811 13.125 73.2374L17.9812 74.4186C18.7687 74.6811 19.425 75.2061 19.8187 75.9936 22.05 81.1124 25.4625 85.7061 29.6625 89.5124 30.0562 89.9061 30.45 90.4311 30.5812 91.0874L32.5499 103.031C32.8125 104.344 33.8624 105.262 35.1749 105.262L43.8374 105.262C45.1499 105.262 46.1999 104.344 46.4624 103.031L47.1187 98.8311C50.1374 99.6186 53.2874 100.012 56.5687 100.012 60.1124 100.012 63.7874 99.4874 67.1999 98.5686L67.9874 103.031C68.2499 104.344 69.2999 105.262 70.6124 105.262L79.2749 105.262C80.5874 105.262 81.6374 104.344 81.8999 103.031L83.8686 91.0874C83.9999 90.4311 84.2624 89.9061 84.7874 89.5124 92.7936 82.5561 98.4373 73.3686 98.4373 62.9999 98.4373 60.7687 98.1749 58.6687 97.6498 56.5687 99.2248 56.0437 100.931 55.6499 102.506 55.6499 101.587 57.0937 101.062 58.6687 101.062 60.3749 100.931 62.9999 101.981 65.4937 103.687 67.3311 105.131 68.7749 106.969 69.6936 108.937 69.6936 113.269 69.6936 116.812 65.6249 116.812 60.5062 116.812 58.0124 115.894 55.7812 114.056 54.0749 115.369 53.8124 116.55 53.6812 117.731 53.8124 119.175 54.0749 120.487 53.0249 120.75 51.5812 120.881 50.1374 119.962 48.8249 118.519 48.5624Z" fill="#E59EDD" transform="matrix(-1 0 0 1 2517 1297)"/></g></g></g><g><g><g><path d="M108.937 64.3124C108.281 64.3124 107.756 63.9187 107.362 63.5249 106.706 62.8687 106.312 61.6874 106.312 60.5062 106.312 58.7999 107.494 57.4874 108.544 56.6999L108.675 56.5687C111.169 57.8812 111.562 59.1937 111.562 60.3749 111.562 62.4749 110.381 64.3124 108.937 64.3124ZM73.2374 38.4562C72.8436 39.3749 71.7936 40.0312 70.8749 40.0312 70.4811 40.0312 70.0874 39.8999 69.8249 39.7687 65.6249 37.7999 61.0312 36.7499 56.6999 36.7499 54.2062 36.7499 51.7124 37.1437 49.2187 37.7999 47.7749 38.1937 46.3312 37.4062 45.9374 35.9624 45.5437 34.5187 46.3312 33.075 47.7749 32.6812 50.6624 31.8937 53.6812 31.5 56.5687 31.5 61.5562 31.5 66.9374 32.6812 71.7936 34.9124 73.2374 35.5687 73.8936 37.1437 73.2374 38.4562ZM118.519 48.5624C115.237 48.0374 111.169 48.9562 107.887 50.7937 104.869 50.1374 100.275 50.1374 96.0748 51.5812 89.9061 36.8812 72.7124 26.25 56.4374 26.25 50.7937 26.25 45.1499 27.5625 40.0312 29.925L23.8875 22.3125C22.8375 21.7875 21.6562 22.8375 22.05 23.8875L27.3 38.7187C24.15 41.9999 21.525 45.8062 19.6875 50.0062 19.425 50.7937 18.7687 51.3187 17.85 51.5812L13.125 52.7624C10.7625 53.2874 9.18749 55.3874 9.18749 57.8812L9.18749 68.1186C9.18749 70.4811 10.7625 72.5811 13.125 73.2374L17.9812 74.4186C18.7687 74.6811 19.425 75.2061 19.8187 75.9936 22.05 81.1124 25.4625 85.7061 29.6625 89.5124 30.0562 89.9061 30.45 90.4311 30.5812 91.0874L32.5499 103.031C32.8125 104.344 33.8624 105.262 35.1749 105.262L43.8374 105.262C45.1499 105.262 46.1999 104.344 46.4624 103.031L47.1187 98.8311C50.1374 99.6186 53.2874 100.012 56.5687 100.012 60.1124 100.012 63.7874 99.4874 67.1999 98.5686L67.9874 103.031C68.2499 104.344 69.2999 105.262 70.6124 105.262L79.2749 105.262C80.5874 105.262 81.6374 104.344 81.8999 103.031L83.8686 91.0874C83.9999 90.4311 84.2624 89.9061 84.7874 89.5124 92.7936 82.5561 98.4373 73.3686 98.4373 62.9999 98.4373 60.7687 98.1749 58.6687 97.6498 56.5687 99.2248 56.0437 100.931 55.6499 102.506 55.6499 101.587 57.0937 101.062 58.6687 101.062 60.3749 100.931 62.9999 101.981 65.4937 103.687 67.3311 105.131 68.7749 106.969 69.6936 108.937 69.6936 113.269 69.6936 116.812 65.6249 116.812 60.5062 116.812 58.0124 115.894 55.7812 114.056 54.0749 115.369 53.8124 116.55 53.6812 117.731 53.8124 119.175 54.0749 120.487 53.0249 120.75 51.5812 120.881 50.1374 119.962 48.8249 118.519 48.5624Z" fill="#E59EDD" transform="matrix(-1 0 0 1 2635 1297)"/></g></g></g><path d="M2538.83 1046 2216.17 1046C2205.07 1046 2196 1055.11 2196 1066.24L2196 1139.61C2201.55 1138.09 2208.1 1137.08 2214.15 1137.08 2218.18 1137.08 2222.22 1137.59 2226.25 1138.09L2226.25 1076.36 2528.75 1076.36 2528.75 1268.64 2357.84 1268.64 2329.1 1299 2538.83 1299C2549.92 1299 2559 1289.89 2559 1278.76L2559 1066.24C2559 1055.11 2549.92 1046 2538.83 1046" fill="#747474" fill-rule="evenodd"/></g></svg>