<svg width="404" height="330" xmlns="http://www.w3.org/2000/svg" xmlns:xlink="http://www.w3.org/1999/xlink" xml:space="preserve" overflow="hidden"><defs><clipPath id="clip0"><rect x="1911" y="1114" width="404" height="330"/></clipPath></defs><g clip-path="url(#clip0)" transform="translate(-1911 -1114)"><g><g><g><path d="M2270.31 1282.44C2268.59 1282.44 2267.22 1281.41 2266.19 1280.38 2264.47 1278.66 2263.44 1275.56 2263.44 1272.47 2263.44 1268 2266.53 1264.56 2269.28 1262.5L2269.62 1262.16C2276.16 1265.59 2277.19 1269.03 2277.19 1272.13 2277.19 1277.63 2274.09 1282.44 2270.31 1282.44ZM2176.81 1214.72C2175.78 1217.13 2173.03 1218.84 2170.62 1218.84 2169.59 1218.84 2168.56 1218.5 2167.88 1218.16 2156.88 1213 2144.84 1210.25 2133.5 1210.25 2126.97 1210.25 2120.44 1211.28 2113.91 1213 2110.13 1214.03 2106.34 1211.97 2105.31 1208.19 2104.28 1204.41 2106.34 1200.63 2110.13 1199.59 2117.69 1197.53 2125.59 1196.5 2133.16 1196.5 2146.22 1196.5 2160.31 1199.59 2173.03 1205.44 2176.81 1207.16 2178.53 1211.28 2176.81 1214.72ZM2295.41 1241.19C2286.81 1239.81 2276.16 1242.22 2267.56 1247.03 2259.66 1245.31 2247.62 1245.31 2236.62 1249.09 2220.47 1210.59 2175.44 1182.75 2132.81 1182.75 2118.03 1182.75 2103.25 1186.19 2089.84 1192.38L2047.56 1172.44C2044.81 1171.06 2041.72 1173.81 2042.75 1176.56L2056.5 1215.41C2048.25 1224 2041.38 1233.97 2036.56 1244.97 2035.88 1247.03 2034.16 1248.41 2031.75 1249.09L2019.38 1252.19C2013.19 1253.56 2009.06 1259.06 2009.06 1265.59L2009.06 1292.41C2009.06 1298.59 2013.19 1304.09 2019.38 1305.81L2032.09 1308.91C2034.16 1309.59 2035.88 1310.97 2036.91 1313.03 2042.75 1326.44 2051.69 1338.47 2062.69 1348.44 2063.72 1349.47 2064.75 1350.84 2065.09 1352.56L2070.25 1383.84C2070.94 1387.28 2073.69 1389.69 2077.12 1389.69L2099.81 1389.69C2103.25 1389.69 2106 1387.28 2106.69 1383.84L2108.41 1372.84C2116.31 1374.91 2124.56 1375.94 2133.16 1375.94 2142.44 1375.94 2152.06 1374.56 2161 1372.16L2163.06 1383.84C2163.75 1387.28 2166.5 1389.69 2169.94 1389.69L2192.62 1389.69C2196.06 1389.69 2198.81 1387.28 2199.5 1383.84L2204.66 1352.56C2205 1350.84 2205.69 1349.47 2207.06 1348.44 2228.03 1330.22 2242.81 1306.16 2242.81 1279 2242.81 1273.16 2242.12 1267.66 2240.75 1262.16 2244.88 1260.78 2249.34 1259.75 2253.47 1259.75 2251.06 1263.53 2249.69 1267.66 2249.69 1272.13 2249.34 1279 2252.09 1285.53 2256.56 1290.34 2260.34 1294.13 2265.16 1296.53 2270.31 1296.53 2281.66 1296.53 2290.94 1285.88 2290.94 1272.47 2290.94 1265.94 2288.53 1260.09 2283.72 1255.63 2287.16 1254.94 2290.25 1254.59 2293.34 1254.94 2297.12 1255.63 2300.56 1252.88 2301.25 1249.09 2301.59 1245.31 2299.19 1241.88 2295.41 1241.19Z" fill="#E59EDD"/></g></g></g><path d="M2094.49 1300.18C2094.49 1294.48 2090.51 1290 2085.45 1290L2085.45 1290 1947.55 1290C1942.49 1290 1938.51 1294.48 1938.51 1300.18L1938.51 1300.18 1938.51 1401.53 1911 1401.53 1911 1406.82C1911 1412.52 1914.98 1417 1920.05 1417L2112.95 1417C2118.02 1417 2122 1412.52 2122 1406.82L2122 1401.53 2094.49 1401.53 2094.49 1300.18ZM1997.5 1367.34 1992.43 1373.04 1972.16 1350.24 1992.43 1327.45 1997.5 1333.15 1982.3 1350.24 1997.5 1367.34ZM2011.25 1375.89 2004.74 1372.63 2021.75 1326.63 2028.26 1329.89 2011.25 1375.89ZM2040.21 1373.45 2035.14 1367.75 2050.34 1350.65 2035.14 1333.55 2040.21 1327.86 2060.47 1350.65 2040.21 1373.45Z" fill="#0B76A0" fill-rule="evenodd"/></g></svg>